<svg xmlns="http://www.w3.org/2000/svg" xmlns:xlink="http://www.w3.org/1999/xlink" width="480" height="439" viewBox="0 0 480 439">
    <defs>
        <linearGradient id="prefix__c" x1="0%" x2="100%" y1="48.479%" y2="51.521%">
            <stop offset="0%" stop-color="#FFB48A"/>
            <stop offset="100%" stop-color="#EC6B69"/>
        </linearGradient>
        <linearGradient id="prefix__d" x1="0%" x2="100%" y1="0%" y2="100%">
            <stop offset="0%" stop-color="#FFB48A"/>
            <stop offset="100%" stop-color="#EC6B69"/>
        </linearGradient>
        <linearGradient id="prefix__e" x1=".004%" x2="99.996%" y1="0%" y2="100%">
            <stop offset="0%" stop-color="#FFB48A"/>
            <stop offset="100%" stop-color="#EC6B69"/>
        </linearGradient>
        <path id="prefix__a" d="M0.354 0.522L505.354 0.522 505.354 420 0.354 420z"/>
    </defs>
    <g fill="none" fill-rule="evenodd">
        <g transform="translate(-26 .001) translate(0 48.03)">
            <mask id="prefix__b" fill="#fff">
                <use xlink:href="#prefix__a"/>
            </mask>
            <path fill="#FDE6D6" d="M475.743 213.266c-1.485 2.217-2.965 4.397-4.545 6.568-13.815 19.291-30.96 37.821-49.945 54.853-.86.791-1.76 1.59-2.655 2.38-2.705 2.386-5.495 4.775-8.285 7.071-4.81 4.105-9.765 8.075-14.805 11.882-2.655 2.092-5.395 4.146-8.1 6.15-31.405 23.099-64.975 43.307-98.055 58.531-10.255 4.774-20.515 9.037-30.64 12.719-52.835 19.458-102.015 24.019-135.945 4.727-10.805-6.108-20.03-14.643-27.365-25.893-1.17-1.803-2.34-3.602-3.51-5.397-10.84-16.865-21.195-33.805-30.285-50.837-2.16-3.974-4.18-7.903-6.16-11.882-32.985-65.894-45.545-132.583 1.21-198.184 18.18-25.517 48.02-45.39 83.835-59.451 10.22-4.054 20.88-7.573 31.955-10.627 5.445-1.59 10.93-2.97 16.555-4.221 7.07-1.674 14.265-3.138 21.555-4.397 5.585-1 11.16-1.879 16.785-2.636 2.34-.289 4.68-.582 7.02-.879C250.968 1.781 267.798.69 284.543.568c2.2-.046 4.405-.046 6.57-.046 10.125.046 20.155.418 30.055 1.175 2.655.168 5.31.377 7.965.666 50.535 4.564 96.885 18.032 128.385 40.377 6.885 4.895 13.055 10.162 18.405 15.898.995 1.046 1.94 2.092 2.835 3.176.315.334.59.67.9 1.008 6.525 7.61 11.745 15.48 15.665 23.513 20.025 40.54 8.32 85.26-19.58 126.93" mask="url(#prefix__b)"/>
        </g>
        <path fill="#D8D5DB" d="M197.33 405.855c-3.016.13-6.076.225-9.046.225-.315 0-.54.266-.54.585 0 .266.225.54.54.54 3.015 0 6.03-.094 9.09-.225.315 0 .54-.274.54-.585-.045-.27-.315-.54-.585-.54m-18.045.09c-3.06-.09-6.12-.27-9-.45-.405-.045-.585.18-.63.49 0 .32.225.59.54.635 2.925.18 5.985.36 9.045.45.315 0 .585-.225.585-.544 0-.311-.225-.581-.54-.581m36.045-1.395c-3.015.31-6.03.585-9 .81-.315 0-.54.266-.54.585.045.315.27.54.585.54h.045c2.97-.225 5.985-.5 9-.81.315-.05.54-.315.54-.634-.045-.311-.315-.54-.63-.491m-54.045.045c-2.97-.32-5.985-.765-8.91-1.264-.315-.041-.585.139-.675.454-.045.31.18.585.495.63 2.925.54 5.94.945 8.955 1.305h.09c.27 0 .495-.18.54-.5.045-.31-.18-.584-.495-.625m71.955-2.43c-3.06.446-6.03.9-8.955 1.305-.315.04-.54.315-.495.626.045.274.315.499.585.499h.045c2.925-.405 5.94-.86 9-1.35.27-.045.495-.315.45-.634-.045-.311-.315-.491-.63-.446m-89.685-.63c-2.97-.675-5.895-1.44-8.73-2.25-.315-.09-.63.045-.72.36-.09.31.09.63.405.716 2.745.765 5.535 1.534 8.37 2.209.135.04.27.04.405.09h.135c.09 0 .18-.05.27-.09l.045-.045c.135-.045.18-.18.225-.32.045-.265-.135-.58-.405-.67m107.415-2.745c-2.925.626-5.94 1.26-8.775 1.8h-.09c-.315.045-.495.31-.45.63.045.266.315.446.585.446h.09c2.025-.36 4.095-.765 6.165-1.211.9-.18 1.8-.36 2.7-.585.315-.045.495-.36.45-.675-.09-.27-.36-.495-.675-.405m17.55-4.28c-2.835.766-5.76 1.53-8.73 2.25-.315.095-.495.365-.405.68.045.266.27.446.54.446.045 0 .09 0 .135-.041 2.97-.72 5.94-1.485 8.775-2.21.27-.085.45-.4.405-.72-.09-.265-.405-.445-.72-.404m-142.245 1.89c-.99-.36-1.935-.72-2.925-1.125-1.845-.72-3.6-1.526-5.355-2.336-.27-.135-.63 0-.765.266-.135.274 0 .634.27.765 1.89.904 3.87 1.71 5.85 2.524.81.36 1.665.67 2.52.99h.225c.225 0 .45-.14.54-.36.09-.27-.045-.585-.36-.724m159.57-6.93c-.585.18-1.17.405-1.8.585-2.205.679-4.5 1.399-6.795 2.07-.315.094-.495.36-.405.679.09.27.315.4.54.4h.18c2.25-.67 4.545-1.345 6.705-2.024.675-.225 1.305-.405 1.935-.626.27-.09.45-.405.36-.724-.09-.266-.405-.446-.72-.36m-175.86-.671l-.315-.225c-2.52-1.44-4.95-2.97-7.29-4.59-.225-.18-.585-.09-.765.18-.18.22-.09.585.135.765 2.34 1.57 4.815 3.15 7.335 4.635l.36.225c.09.04.18.04.27.04.225 0 .405-.085.495-.265.18-.274.045-.634-.225-.765m192.96-5.134c-2.835 1.039-5.715 2.029-8.505 3.015-.315.094-.45.409-.36.679.09.266.27.4.54.4.045 0 .09 0 .18-.04 2.835-.945 5.67-1.984 8.505-3.015.315-.094.45-.405.36-.72-.135-.32-.495-.45-.72-.32m17.55-6.295c-.135-.315-.45-.454-.72-.315-2.745 1.125-5.58 2.29-8.415 3.375-.27.135-.405.446-.315.765.09.22.315.36.54.36.045 0 .135-.045.225-.045 2.835-1.125 5.67-2.295 8.37-3.42.315-.135.45-.454.315-.72M95.18 378.626c-1.035-.806-2.07-1.661-3.015-2.475-1.305-1.125-2.52-2.291-3.735-3.416-.225-.225-.585-.225-.81 0-.225.22-.225.585 0 .806 1.44 1.354 2.925 2.704 4.5 4.009.765.67 1.53 1.35 2.34 1.976.09.094.225.139.36.139.18 0 .315-.09.45-.225.18-.225.135-.585-.09-.814m241.875-8.64c-.135-.311-.495-.405-.765-.266-2.61 1.21-5.265 2.475-8.235 3.78-.27.09-.405.45-.27.72.09.225.315.36.495.36.09 0 .18-.045.225-.094 2.97-1.305 5.67-2.516 8.28-3.78.27-.131.405-.446.27-.72m-254.835-3.78c-1.98-2.25-3.87-4.631-5.58-7.016-.18-.274-.54-.315-.81-.135-.225.18-.27.54-.09.765 1.575 2.25 3.33 4.455 5.13 6.566.18.184.315.405.495.585.09.094.27.18.405.18s.27-.041.405-.131c.18-.18.225-.41.135-.634 0-.086-.045-.135-.09-.18m270.99-4.361c-.135-.27-.495-.36-.765-.225-2.565 1.39-5.31 2.79-8.01 4.14-.27.135-.36.405-.27.626-.045.045 0 .094 0 .139.09.18.315.315.495.315.09 0 .18-.05.27-.09.225-.14.495-.225.72-.364 2.52-1.211 4.95-2.516 7.335-3.776.27-.14.36-.5.225-.765m15.75-8.865c-.135-.274-.495-.36-.765-.23-.495.275-.945.59-1.44.86-2.07 1.26-4.185 2.47-6.39 3.69-.27.13-.36.49-.18.765.09.18.27.266.495.266.09 0 .18 0 .27-.041 2.655-1.53 5.31-3.06 7.83-4.545.045-.045.09-.094.135-.135.18-.18.18-.405.045-.63m-297.18-1.354c-1.53-2.561-2.925-5.265-4.14-7.961-.135-.27-.495-.405-.765-.27-.27.13-.405.45-.27.765 1.26 2.7 2.655 5.445 4.185 8.055.09.18.27.27.495.27.09 0 .18-.045.27-.09.27-.135.36-.495.225-.77m312.525-8.185c0-.045-.045-.094-.045-.135-.18-.27-.54-.32-.765-.18-.18.09-.315.22-.495.315-1.26.85-2.61 1.755-3.915 2.56-1.035.72-2.115 1.4-3.15 2.075-.27.13-.36.495-.18.765.09.18.27.27.45.27.09 0 .225-.045.315-.09 1.575-.994 3.105-1.98 4.635-3.02.99-.625 1.98-1.255 2.97-1.93.18-.14.27-.405.18-.63m14.67-10.62c-.18-.27-.54-.32-.765-.14-2.385 1.805-4.86 3.605-7.29 5.36-.27.18-.315.495-.135.765.135.135.27.22.45.22.135 0 .225 0 .36-.085 2.43-1.76 4.905-3.555 7.29-5.36.27-.18.315-.54.09-.76M61.61 326.745c-.09-.315-.405-.495-.72-.405-.27.09-.45.405-.405.67.81 2.975 1.71 5.9 2.7 8.69.09.27.27.405.54.405.045 0 .09 0 .18-.05.27-.085.45-.404.315-.715-.99-2.79-1.845-5.674-2.61-8.595m351.45-5.36c-.225-.22-.585-.22-.81-.04-2.205 1.89-4.5 3.82-6.93 5.805-.225.18-.27.54-.09.765.135.135.27.22.45.22.135 0 .225-.04.36-.134 2.43-1.931 4.77-3.911 6.93-5.801.27-.23.27-.54.09-.814M58.414 309.01c0-.266-.27-.54-.585-.491-.315.045-.54.31-.495.63.315 3.056.72 6.07 1.215 9 .045.266.315.446.585.446h.09c.315-.041.495-.311.45-.626-.495-2.93-.945-5.895-1.26-8.96m367.875.095c-.225-.23-.585-.23-.81 0-2.07 2.07-4.275 4.185-6.48 6.255-.225.18-.27.54-.045.765.09.135.27.18.405.18s.27-.045.405-.14c2.205-2.07 4.41-4.18 6.525-6.295.225-.225.225-.585 0-.765m12.195-13.37c-.225-.224-.585-.18-.81.05-1.845 2.25-3.87 4.545-5.94 6.795-.225.225-.18.585.045.806.09.094.225.139.36.139.18 0 .315-.094.405-.18 2.115-2.295 4.14-4.594 6.03-6.844.18-.225.135-.585-.09-.765m-380.745-.671c0-1.305 0-2.655.045-4.01 0-.31-.225-.584-.54-.584-.315 0-.585.229-.585.54-.045 1.35-.045 2.704-.045 4.054 0 1.71.045 3.375.09 5.04 0 .27.27.54.54.54h.045c.315-.05.54-.27.54-.59-.045-1.66-.09-3.325-.09-4.99m391.635-13.725c-.27-.18-.585-.135-.765.13-1.665 2.43-3.465 4.906-5.265 7.29-.225.275-.135.635.09.815.09.045.225.09.36.09.135 0 .315-.045.45-.225 1.8-2.385 3.6-4.86 5.265-7.335.18-.274.135-.634-.135-.765m-390.6-8.87c-.36-.085-.585.14-.63.455-.405 3.06-.72 6.075-.99 9.045 0 .315.225.585.54.585h.045c.27 0 .54-.225.54-.5.27-2.965.585-5.98.99-8.95.045-.315-.18-.634-.495-.634M458.6 265.77c-.27-.09-.585 0-.765.27-1.305 2.565-2.79 5.22-4.365 7.83-.18.266-.09.63.18.81.09.04.18.04.27.04.225 0 .405-.085.495-.265 1.62-2.655 3.105-5.31 4.455-7.92.135-.274 0-.634-.27-.765M62.014 254.65c-.315-.04-.585.14-.675.455-.63 2.97-1.26 5.936-1.8 8.865-.045.315.18.585.45.675h.135c.27 0 .495-.18.54-.45.54-2.925 1.125-5.895 1.8-8.865.045-.32-.135-.585-.45-.68m403.695-5.485c-.315-.09-.63.04-.72.36-.945 2.745-2.07 5.58-3.285 8.37-.135.31 0 .63.315.765.045 0 .135.045.225.045.18 0 .405-.135.495-.36 1.215-2.835 2.34-5.67 3.285-8.46.135-.274-.045-.585-.315-.72m-399.015-11.97c-.27-.09-.585.09-.675.4-.9 2.885-1.755 5.806-2.52 8.69-.045.31.135.63.405.67.045.046.09.046.18.046.225 0 .45-.176.54-.405.72-2.876 1.575-5.805 2.475-8.681.09-.32-.09-.63-.405-.72m403.785-5.445c-.315-.09-.585.135-.675.4-.63 2.885-1.395 5.806-2.205 8.78-.045.27.09.58.405.675.045 0 .09.045.135.045.27 0 .495-.18.54-.45.81-2.925 1.575-5.895 2.25-8.775.045-.315-.135-.634-.45-.675M72.59 220.095c-.315-.094-.63.04-.72.315-1.08 2.835-2.115 5.715-3.06 8.546-.135.274.045.585.315.724h.18c.27 0 .45-.14.54-.36.99-2.835 2.025-5.715 3.06-8.505.09-.274-.045-.634-.315-.72m401.13-6.165c-.27-.045-.585.18-.63.495-.405 2.97-.9 5.936-1.44 8.906-.045.319.135.585.45.679h.09c.27 0 .495-.18.585-.454.54-3.015 1.035-6.03 1.44-8.951 0-.315-.18-.634-.495-.675M79.43 203.355c-.27-.135-.585 0-.72.31-1.215 2.75-2.43 5.54-3.555 8.33-.09.266.045.63.315.72.09.045.135.045.225.045.225 0 .405-.135.495-.36 1.125-2.75 2.34-5.54 3.555-8.28.135-.315 0-.634-.315-.765m395.865-7.425c-.27.04-.54.22-.585.54-.135 3.015-.315 6.03-.585 9-.045.315.18.585.495.626h.045c.27 0 .54-.221.54-.54.315-2.966.495-5.981.63-9.045.045-.266-.225-.54-.54-.581m-388.08-8.91c-.27-.135-.63-.05-.765.225-1.35 2.7-2.7 5.445-3.96 8.14-.135.32 0 .635.27.766.09.049.135.049.225.049.225 0 .405-.09.495-.315 1.305-2.704 2.655-5.445 4.005-8.1.135-.315 0-.634-.27-.765m388.62-8.6c0-.31-.27-.535-.585-.535-.315 0-.54.27-.54.585.135 2.97.225 5.985.225 9 0 .315.27.585.54.585.315 0 .585-.27.585-.585 0-3.015-.09-6.075-.225-9.05m-380.07-7.375c-.27-.135-.63-.045-.765.225-1.53 2.65-2.97 5.355-4.365 7.965-.135.27-.045.585.225.72.09.045.18.09.27.09.18 0 .405-.09.495-.315 1.395-2.565 2.835-5.265 4.365-7.92.135-.27.045-.585-.225-.765m378.36-10.71c-.045-.315-.315-.54-.63-.45-.315.045-.495.315-.45.626.405 2.974.765 5.989 1.035 8.959.045.315.27.495.585.495h.045c.315 0 .54-.27.495-.585-.27-3.015-.63-6.03-1.08-9.045M104.99 155.52c-.225-.18-.585-.09-.765.18-1.575 2.56-3.15 5.13-4.68 7.74-.18.27-.09.585.18.765.09.045.18.09.27.09.225 0 .405-.09.495-.27 1.53-2.61 3.105-5.175 4.68-7.74.18-.274.09-.585-.18-.765m367.605-4.455h-.045c-.495-2.835-1.17-5.67-1.845-8.554-.045-.311-.36-.491-.675-.401-.27.045-.495.36-.405.675.675 2.745 1.26 5.49 1.8 8.235.045.18.09.4.135.585.045.27.27.45.54.45h.09c.315-.09.495-.36.45-.675 0-.09-.045-.225-.045-.315m-357.48-10.98c-.225-.18-.585-.135-.765.135l-.225.315c-1.665 2.475-3.375 4.995-4.995 7.51-.18.275-.135.635.135.815.09.045.225.09.315.09.18 0 .36-.09.45-.27 1.665-2.52 3.33-5.044 5.04-7.515l.225-.315c.135-.225.09-.59-.18-.765m352.62-8.37c-.675-2.25-1.395-4.455-2.115-6.615-.09-.315-.45-.45-.72-.36-.315.135-.45.45-.36.72.855 2.475 1.665 4.995 2.43 7.56.09.36.225.675.315 1.035.09.27.315.405.54.405h.18c.27-.09.45-.405.36-.72-.18-.675-.405-1.354-.63-2.025M125.51 125.28c-.27-.18-.63-.135-.81.135-1.71 2.43-3.465 4.86-5.22 7.38-.18.225-.09.585.135.765.135.09.225.09.36.09.135 0 .315-.045.45-.23 1.71-2.47 3.465-4.945 5.22-7.375.18-.27.09-.585-.135-.765m10.71-14.58c-.27-.18-.585-.135-.81.09-1.8 2.38-3.6 4.815-5.4 7.29-.18.225-.09.585.135.765.09.09.225.135.315.135.18 0 .36-.094.495-.27 1.755-2.43 3.555-4.86 5.355-7.245.18-.225.135-.585-.09-.765m326.205 5.895c-.27-.675-.585-1.395-.9-2.115-.135-.36-.315-.765-.495-1.17-.675-1.665-1.44-3.375-2.205-5.04-.135-.27-.45-.405-.765-.27-.27.135-.405.45-.27.72.54 1.166 1.08 2.34 1.575 3.51.36.765.675 1.53.945 2.25.36.765.675 1.485.945 2.25l.135.27c.09.225.27.36.495.36.09 0 .135 0 .225-.045.225-.09.405-.315.36-.585 0-.045 0-.094-.045-.135m-315.09-20.21c-.27-.175-.585-.13-.81.095-1.845 2.25-3.6 4.59-5.4 6.885-.045.09-.135.135-.18.225-.225.27-.18.63.09.81.09.09.225.135.315.135.135 0 .27-.045.36-.135l.09-.09c1.89-2.43 3.735-4.77 5.625-7.11.18-.225.135-.585-.09-.814m307.53 3.739c-.585-1.08-1.125-2.115-1.71-3.15-.855-1.62-1.755-3.195-2.7-4.77-.135-.27-.495-.36-.765-.225-.27.18-.36.495-.18.765.945 1.62 1.845 3.285 2.79 4.995.495.945 1.035 1.93 1.53 2.925.135.18.315.27.495.27.09 0 .18 0 .27-.05.27-.13.405-.49.27-.76M158.9 82.485c-.27-.18-.585-.135-.81.09-1.935 2.25-3.915 4.545-5.85 6.885-.18.27-.18.63.09.81.09.09.225.135.36.135.135 0 .315-.09.405-.225 1.935-2.34 3.915-4.635 5.85-6.885.18-.225.18-.585-.045-.81m286.785 1.98c-1.62-2.52-3.33-4.995-5.085-7.47-.18-.27-.54-.315-.81-.135-.225.18-.315.54-.135.81 1.755 2.43 3.51 4.905 5.13 7.425.09.135.27.225.45.225.09 0 .225 0 .315-.09.27-.135.315-.495.135-.765M170.96 69.03c-.225-.18-.585-.18-.765.045-2.07 2.16-4.095 4.41-6.12 6.66-.225.27-.18.585.045.81.09.09.225.135.36.135.135 0 .315-.045.405-.18 2.025-2.25 4.095-4.5 6.12-6.66.225-.225.18-.585-.045-.81m264.15.765c-1.89-2.385-3.87-4.725-5.85-6.975-.18-.225-.54-.225-.765-.045-.27.225-.27.585-.045.81 1.935 2.205 3.915 4.545 5.76 6.885.135.135.27.225.45.225.135 0 .225-.045.36-.135.225-.18.27-.54.09-.765M183.65 56.16c-.225-.225-.54-.225-.765 0-2.115 2.025-4.275 4.185-6.435 6.386-.225.229-.225.589 0 .769.09.135.225.18.405.18.135 0 .27-.045.405-.18 2.115-2.16 4.275-4.32 6.39-6.345.225-.225.225-.585 0-.81m239.49.045c-2.115-2.16-4.275-4.32-6.48-6.345-.225-.225-.585-.225-.81 0-.18.225-.18.585.045.81 2.205 2.025 4.365 4.185 6.435 6.3.09.09.225.18.405.18.135 0 .27-.045.36-.18.225-.225.225-.585.045-.765M197.06 44.01c-.225-.225-.585-.27-.81-.045-1.62 1.395-3.24 2.79-4.815 4.23-.405.315-.765.675-1.125 1.035-.27.225-.585.45-.855.72-.225.22-.225.585-.045.81.135.09.27.18.45.18.135 0 .27-.045.36-.135l1.485-1.35 1.62-1.485c1.215-1.084 2.43-2.115 3.645-3.15.225-.225.27-.585.09-.81m212.85-.18c-2.295-1.98-4.68-3.87-7.02-5.715-.27-.18-.63-.135-.81.09-.18.27-.135.63.09.806 2.385 1.804 4.725 3.739 7.02 5.674.09.09.225.135.36.135.135 0 .315-.09.405-.225.225-.225.18-.585-.045-.765M211.19 32.76c-.18-.225-.54-.315-.765-.09-2.385 1.71-4.77 3.6-7.2 5.49-.225.225-.27.54-.09.81.135.135.27.225.45.225.135 0 .225-.045.36-.135 2.385-1.935 4.77-3.78 7.155-5.49.225-.184.27-.54.09-.81m184.365 0c-2.475-1.755-4.995-3.42-7.56-5.04-.225-.135-.585-.09-.765.18-.18.27-.09.63.18.765 2.52 1.62 5.04 3.285 7.515 4.995.09.09.225.09.315.09.18 0 .36-.045.45-.225.18-.27.135-.585-.135-.765M226.22 22.68c-.18-.225-.54-.315-.765-.18-2.565 1.575-5.13 3.195-7.65 4.905-.27.18-.315.54-.135.81.09.135.27.225.45.225.135 0 .225-.045.315-.09 2.52-1.714 5.04-3.33 7.605-4.86.27-.18.315-.54.18-.81m154.035.405c-2.655-1.485-5.355-2.97-8.01-4.324-.27-.131-.63 0-.765.274-.135.27 0 .585.27.76 2.655 1.355 5.31 2.75 7.92 4.235.09.09.18.09.27.09.225 0 .405-.09.495-.27.18-.27.09-.63-.18-.765m-138.15-8.955c-.135-.315-.45-.405-.765-.27-2.655 1.26-5.4 2.65-8.055 4.095-.27.18-.36.495-.225.765.09.225.315.315.495.315.09 0 .18-.045.27-.09 2.655-1.44 5.355-2.79 8.01-4.095.27-.135.405-.45.27-.72m121.95.72c-2.745-1.215-5.535-2.43-8.325-3.555-.27-.09-.63.045-.72.315-.135.31 0 .63.315.765 2.79 1.08 5.58 2.295 8.28 3.51.09.045.135.045.225.045.225 0 .45-.135.54-.315.135-.32 0-.63-.315-.765M258.17 7.02c-2.835.945-5.715 2.025-8.505 3.15-.315.135-.45.45-.315.716.09.229.315.364.495.364.09 0 .18 0 .225-.045 2.79-1.125 5.625-2.205 8.46-3.15.27-.09.45-.405.315-.675-.09-.315-.405-.45-.675-.36m89.055 1.125c-2.88-.99-5.76-1.89-8.64-2.7-.315-.09-.63.09-.72.405-.09.27.09.585.405.675 2.835.81 5.76 1.71 8.595 2.7h.18c.225 0 .45-.135.54-.36.09-.32-.045-.63-.36-.72m-71.55-5.805c-2.97.58-5.94 1.26-8.82 2.07-.315.045-.495.36-.405.675.045.225.27.405.54.405h.135c2.88-.765 5.85-1.444 8.775-2.025.27-.045.495-.36.45-.675-.09-.27-.36-.495-.675-.45m54.09.9c-2.97-.63-5.985-1.215-8.91-1.665-.315-.045-.63.18-.675.45-.045.315.18.63.495.675 2.925.45 5.895.99 8.865 1.62.045.045.09.045.09.045.27 0 .495-.18.585-.45.045-.315-.135-.585-.45-.675M293.72.135h-.045c-3.015.18-6.075.45-9.045.81-.315.045-.54.315-.495.63.045.27.27.495.585.495h.045c2.97-.36 5.985-.63 9-.81.27 0 .54-.27.495-.59 0-.265-.27-.535-.54-.535m18.09.36c-2.97-.27-6.03-.45-9.045-.495-.315 0-.585.225-.585.54 0 .315.225.585.54.585 3.015.045 6.03.225 9 .495h.045c.315 0 .54-.225.585-.54 0-.32-.225-.585-.54-.585" transform="translate(-26 .001)"/>
        <g>
            <path fill="#F2EFF2" d="M353.536 24.246h-60.919c-4.424 0-8.045 3.622-8.045 8.045v62.004c0 .37.212.687.555.83.343.14.717.067.98-.196l13.708-13.709h53.721c4.425 0 8.046-3.62 8.046-8.045V32.291c0-4.424-3.621-8.045-8.046-8.045" transform="translate(-26 .001) translate(45 72.999)"/>
            <path fill="#FF7B5B" d="M350.081 21.664h-60.92c-4.423 0-8.042 3.621-8.042 8.046v62.003c0 .37.21.688.553.83.343.142.716.068.98-.196l13.708-13.709h53.721c4.425 0 8.046-3.62 8.046-8.045V29.71c0-4.425-3.622-8.046-8.046-8.046" transform="translate(-26 .001) translate(45 72.999)"/>
            <path fill="#FFFFFE" d="M331.52 37.408c-3.043-3.044-7.25-4.927-11.898-4.927-4.645 0-8.853 1.883-11.898 4.927-3.044 3.045-4.928 7.252-4.928 11.898 0 4.647 1.884 8.854 4.928 11.898 3.045 3.045 7.253 4.929 11.898 4.929 4.647 0 8.855-1.884 11.897-4.929 3.046-3.044 4.93-7.25 4.93-11.898 0-4.646-1.884-8.853-4.93-11.898zm-11.898-6.528c5.089 0 9.695 2.062 13.03 5.396 3.334 3.336 5.397 7.942 5.397 13.03 0 5.09-2.062 9.695-5.397 13.03-3.335 3.335-7.941 5.398-13.03 5.398-5.088 0-9.695-2.063-13.03-5.397-3.334-3.336-5.397-7.942-5.397-13.03 0-5.09 2.064-9.695 5.397-13.03 3.335-3.335 7.942-5.397 13.03-5.397z" transform="translate(-26 .001) translate(45 72.999)"/>
            <path fill="#FFFFFE" d="M312.114 36.302c.238-.137.542-.055.68.182l.432.75c.138.238.056.543-.18.68-.238.137-.544.055-.681-.182l-.433-.75c-.138-.238-.055-.543.182-.68zM326.2 60.7c.237-.137.542-.055.68.181l.434.751c.136.238.054.542-.183.68-.238.136-.543.054-.68-.182l-.433-.75c-.137-.239-.054-.544.182-.68zm-19.582-18.901c.137-.238.442-.32.678-.183l.751.434c.238.137.32.442.183.68-.138.236-.443.318-.68.181l-.75-.433c-.238-.138-.32-.443-.182-.68zm24.397 14.086c.137-.238.442-.32.68-.183l.75.434c.237.136.318.442.182.68-.136.236-.442.318-.68.181l-.75-.434c-.237-.137-.318-.442-.182-.678zm-26.41-6.579c0-.273.224-.497.499-.497h.866c.274 0 .497.224.497.497 0 .275-.223.498-.497.498h-.866c-.276 0-.498-.223-.498-.498zm28.173 0c0-.273.223-.497.497-.497h.867c.274 0 .496.224.496.497 0 .275-.222.498-.496.498h-.867c-.274 0-.497-.223-.497-.498zm-26.16 7.51c-.137-.238-.056-.544.182-.68l.75-.434c.237-.137.542-.055.68.183.137.236.055.542-.183.678l-.75.434c-.237.137-.542.055-.679-.182zm24.397-14.088c-.136-.236-.055-.541.182-.678l.75-.434c.238-.137.544-.055.68.183.136.236.055.542-.181.68l-.751.432c-.239.137-.543.055-.68-.183zm-18.901 19.583c-.237-.137-.32-.442-.182-.679l.433-.75c.137-.237.443-.32.68-.182.237.136.319.441.182.68l-.433.75c-.138.236-.442.318-.68.18zM326.2 37.913c-.236-.136-.319-.442-.182-.68l.434-.749c.136-.237.441-.32.68-.182.236.137.318.442.182.679l-.434.75c-.138.238-.443.32-.68.182zm-6.578 26.41c-.273 0-.497-.223-.497-.498v-.866c0-.274.224-.497.498-.497.273 0 .496.223.496.497v.866c0 .275-.223.498-.497.498zm0-28.172c-.273 0-.497-.223-.497-.497v-.866c0-.275.224-.498.498-.498.273 0 .496.223.496.498v.866c0 .274-.223.497-.497.497zM319.622 49.978c.37 0 .672-.302.672-.672v-11.42c0-.37-.302-.671-.672-.671-.369 0-.671.301-.671.671v11.42c0 .37.302.672.671.672" transform="translate(-26 .001) translate(45 72.999)"/>
            <path fill="#FFFFFE" d="M319.147 48.832c-.26.261-.26.688 0 .95l5.92 5.919c.262.262.689.262.95 0 .26-.261.26-.689 0-.95l-5.92-5.919c-.261-.262-.689-.262-.95 0" transform="translate(-26 .001) translate(45 72.999)"/>
            <path fill="#775298" d="M403.532 95.607c-.895.258-1.743.623-2.53 1.078-.81.467-1.555 1.03-2.222 1.674-.131.126-.324.144-.473.057l-3-1.732-.018-.01c-.171-.093-.367-.11-.547-.062-.185.049-.35.168-.452.344l-.014.02-2.11 3.658c-.102.177-.122.38-.073.566.05.183.17.35.346.451l.02.013 2.977 1.719c.156.09.228.27.187.436v.001c-.109.443-.194.899-.25 1.365-.056.454-.084.919-.084 1.391 0 .473.028.937.084 1.392.056.466.141.921.25 1.364.047.184-.046.37-.208.45l-2.976 1.719c-.177.103-.296.267-.346.452-.05.185-.029.389.072.565l2.125 3.678c.103.177.267.295.452.345.185.05.388.029.564-.072l.022-.013 2.98-1.72c.156-.09.348-.06.472.058.667.644 1.412 1.207 2.221 1.673.793.46 1.647.825 2.548 1.083.174.05.288.21.288.381v3.463c0 .203.084.389.219.524s.32.218.524.218h4.249c.203 0 .39-.083.523-.218.135-.135.22-.32.22-.524v-3.463c0-.187.13-.344.304-.387.895-.257 1.743-.621 2.531-1.077.81-.466 1.554-1.03 2.221-1.673.137-.131.342-.145.493-.046l2.982 1.721c.176.102.378.121.564.072.184-.05.35-.168.452-.346l.013-.02 2.112-3.658c.1-.176.12-.379.071-.564-.05-.186-.169-.35-.344-.452l-2.998-1.73c-.157-.09-.228-.272-.188-.439.11-.443.194-.898.25-1.364.056-.455.084-.92.084-1.392 0-.473-.028-.937-.083-1.391-.057-.467-.142-.922-.25-1.365-.047-.184.045-.37.208-.45l2.977-1.719c.175-.1.294-.267.344-.451.05-.185.029-.387-.072-.565l-.012-.021-2.112-3.658c-.102-.176-.268-.295-.452-.344-.186-.05-.388-.03-.564.071v.001l-3 1.732c-.16.093-.36.062-.484-.065-.664-.64-1.407-1.2-2.212-1.666-.792-.458-1.647-.823-2.548-1.083-.174-.049-.288-.208-.288-.381v-3.462c0-.204-.084-.39-.219-.524-.134-.134-.32-.218-.523-.218h-4.25c-.203 0-.388.084-.523.218s-.219.32-.219.524v3.462c0 .188-.13.345-.305.386zm-1.395 6.403c1.17-1.17 2.784-1.892 4.568-1.892 1.782 0 3.397.722 4.567 1.892 1.168 1.168 1.891 2.782 1.891 4.566 0 1.784-.723 3.399-1.89 4.568-1.17 1.168-2.786 1.891-4.568 1.891-1.784 0-3.399-.723-4.568-1.891-1.168-1.17-1.892-2.784-1.892-4.568 0-1.784.724-3.398 1.892-4.566zM28.617 40.09c-1.207.513-2.376 1.098-3.5 1.75-1.148.662-2.25 1.393-3.298 2.183-1.05.792-2.056 1.65-3.007 2.567-.036.035-.081.055-.13.061-.051.006-.102-.003-.145-.027-2.786-1.61-5.578-3.212-8.36-4.829-.332-.179-.687-.288-1.047-.33-.371-.04-.745-.012-1.1.083-.366.099-.715.269-1.024.504-.295.225-.552.513-.748.853-2.02 3.271-3.939 6.815-5.871 10.162-.195.34-.315.708-.364 1.08-.048.387-.02.775.077 1.138.098.366.268.716.504 1.023.226.297.512.555.853.75 2.666 1.647 5.558 3.21 8.285 4.785.043.025.075.063.094.108.019.045.024.098.013.145l-.191.773.01.004c-.082.375-.16.757-.23 1.145-.122.662-.223 1.315-.3 1.955-.077.634-.136 1.29-.178 1.963-.04.675-.06 1.338-.06 1.983s.02 1.305.06 1.981c.042.674.101 1.33.178 1.966.077.639.178 1.291.3 1.953.12.658.26 1.3.412 1.922.013.051.008.104-.015.15-.023.05-.06.09-.102.111-3.045 1.626-6.135 3.539-9.144 5.279l.106.134-.092.114c-.235.308-.405.658-.503 1.024-.097.364-.125.752-.077 1.137.049.372.169.74.366 1.08l6.306 10.924.117-.07c.063.057.128.111.194.163.31.234.658.405 1.025.503.363.097.75.124 1.135.075.362-.046.72-.16 1.05-.346 2.76-1.464 5.6-3.233 8.325-4.806.04-.023.09-.03.14-.024.05.006.098.028.134.063.952.916 1.956 1.773 3.005 2.565 1.047.788 2.149 1.518 3.295 2.181 1.133.655 2.31 1.243 3.525 1.76 1.207.512 2.446.953 3.712 1.316.052.015.093.045.12.081.032.043.052.093.049.142v9.565c0 .391.078.769.223 1.113.15.36.367.682.638.949.267.268.588.485.944.633.346.144.722.224 1.114.224h11.738c.39 0 .768-.08 1.113-.224.356-.148.676-.365.949-.633.266-.267.484-.589.633-.949.144-.344.224-.722.224-1.113v-9.566c0-.058.017-.108.046-.144.03-.038.077-.068.13-.08l.037-.015c1.274-.367 2.506-.805 3.69-1.31 1.206-.512 2.375-1.097 3.501-1.749 1.148-.663 2.25-1.393 3.297-2.182 1.05-.792 2.055-1.65 3.007-2.569.04-.038.088-.06.135-.064.05-.004.105.008.15.038l8.284 4.782c.34.197.707.316 1.076.362.385.05.772.022 1.137-.075.366-.098.715-.268 1.024-.503.288-.22.54-.5.735-.83 2.177-3.5 4.233-7.333 6.31-10.927l-.113-.067c.022-.091.038-.183.05-.276.048-.384.022-.77-.077-1.135-.097-.366-.267-.716-.503-1.023-.226-.297-.513-.554-.852-.75l-8.286-4.783c-.043-.025-.075-.063-.094-.108-.02-.047-.025-.1-.013-.15l.216-.875-.013-.003c.075-.341.144-.688.208-1.04.121-.661.222-1.314.3-1.954.077-.636.137-1.292.178-1.966.04-.676.061-1.336.061-1.98 0-.646-.02-1.307-.061-1.983-.04-.674-.1-1.33-.178-1.969-.078-.633-.177-1.286-.3-1.954-.12-.657-.26-1.298-.413-1.917-.012-.05-.005-.103.017-.154.02-.046.058-.084.105-.108l8.275-4.778c.343-.198.629-.453.852-.75.234-.31.405-.66.501-1.022.099-.363.125-.75.076-1.135-.045-.362-.161-.72-.35-1.055-1.971-3.654-4.233-7.337-6.319-10.95l-.119.07c-.062-.057-.127-.112-.193-.163-.309-.235-.658-.405-1.024-.504-.364-.097-.751-.125-1.136-.076-.374.048-.74.166-1.076.358l-.614.352.003.007-7.685 4.435c-.047.027-.098.036-.148.03-.049-.008-.095-.03-.13-.066l-.02-.02c-.941-.907-1.944-1.76-3.001-2.556-1.052-.791-2.147-1.518-3.28-2.172-1.131-.655-2.31-1.244-3.523-1.76-1.206-.512-2.446-.953-3.713-1.316-.05-.015-.09-.044-.12-.082-.032-.042-.05-.092-.047-.14v-9.567c0-.39-.08-.767-.224-1.113-.149-.359-.367-.681-.637-.948-.269-.268-.59-.486-.945-.634-.345-.143-.722-.223-1.113-.223H35.44c-.392 0-.768.08-1.114.223-.356.148-.677.366-.948.634-.529.529-.857 1.259-.857 2.061v9.567c0 .055-.02.106-.048.146-.03.037-.076.066-.129.079l-.038.013c-1.274.367-2.506.806-3.689 1.31zm4.127.362c-1.172.338-2.323.75-3.449 1.23-1.143.486-2.25 1.04-3.312 1.654-1.08.624-2.123 1.317-3.121 2.068-1.003.756-1.956 1.569-2.85 2.433-.318.306-.714.484-1.121.533-.416.052-.846-.034-1.22-.25-2.747-1.586-5.637-3.157-8.329-4.81-.13-.068-.267-.11-.405-.124-.155-.018-.31-.005-.459.035-.153.04-.297.11-.421.205-.119.09-.223.208-.304.345-2.004 3.032-4.014 6.948-5.87 10.162-.078.138-.126.285-.146.432-.019.154-.006.316.036.473.04.153.11.297.204.421.092.12.21.224.346.303 2.473 1.635 5.657 3.271 8.278 4.784.384.22.665.55.825.927.058.131.098.268.125.408l.17.056-.191.773c-.15.608-.282 1.214-.393 1.82-.108.587-.202 1.203-.28 1.846-.075.626-.133 1.247-.17 1.86-.036.6-.054 1.229-.054 1.883 0 .654.018 1.28.054 1.88.037.614.095 1.237.17 1.862.078.642.172 1.258.28 1.846.112.605.243 1.213.393 1.821.111.45.057.903-.123 1.291-.18.39-.488.716-.887.92L3.19 83.77l.002.003-.87.501c-.136.08-.253.185-.345.304-.093.124-.164.268-.204.42-.042.158-.055.32-.036.474.02.147.068.294.147.432l5.428 9.404.003-.002.438.76c.08.138.184.254.304.345.124.095.268.164.421.206.156.041.317.054.47.034.146-.019.292-.068.43-.146 2.626-1.65 5.589-3.225 8.297-4.788.387-.221.811-.298 1.211-.25.417.051.812.234 1.122.53l.003.004c.897.864 1.85 1.677 2.853 2.433.997.752 2.039 1.443 3.117 2.067 1.07.618 2.185 1.175 3.336 1.665 1.13.48 2.303.895 3.51 1.242.425.121.779.375 1.027.704.251.333.395.75.395 1.184l.004 9.565c0 .161.032.314.09.45.058.142.149.274.26.386.108.112.242.2.386.261.137.057.29.088.451.088h11.738c.161 0 .312-.031.45-.088.145-.061.277-.15.387-.26.11-.113.2-.245.26-.387.057-.136.088-.289.088-.45v-9.566c0-.456.16-.878.426-1.214.27-.343.65-.594 1.084-.697 1.172-.336 2.322-.749 3.448-1.228 1.143-.486 2.25-1.04 3.314-1.655 1.08-.624 2.121-1.315 3.119-2.068 1.003-.755 1.955-1.568 2.852-2.433.331-.319.75-.498 1.179-.538.436-.04.882.067 1.259.315l8.19 4.729c.136.078.283.126.433.145.154.02.316.007.472-.034.153-.042.297-.111.421-.206.12-.091.225-.207.303-.345 1.947-3.393 3.922-6.77 5.87-10.163.079-.137.127-.284.146-.434.02-.153.007-.314-.035-.47-.04-.154-.11-.3-.204-.423-.09-.121-.203-.224-.34-.302l-8.285-4.783c-.383-.22-.665-.55-.825-.927-.043-.101-.078-.207-.104-.315l-.216-.043.216-.879c.15-.608.283-1.214.394-1.818.108-.59.201-1.206.28-1.848.075-.626.134-1.248.17-1.863.037-.6.055-1.226.055-1.88 0-.653-.018-1.281-.055-1.88-.036-.614-.094-1.235-.17-1.861-.08-.65-.173-1.268-.28-1.852-.11-.603-.242-1.21-.394-1.816-.11-.452-.055-.906.126-1.295.181-.387.488-.713.88-.915l8.206-4.738c.135-.075.25-.18.342-.301.094-.12.163-.267.204-.423.042-.156.055-.317.035-.47-.019-.15-.067-.297-.145-.434-2.005-2.979-4.01-6.959-5.871-10.163-.078-.137-.184-.254-.303-.345-.124-.095-.268-.165-.42-.205-.157-.042-.318-.054-.472-.035-.145.018-.293.067-.433.148l-8.29 4.785c-.39.228-.828.304-1.243.247-.417-.057-.813-.248-1.12-.553-.901-.866-1.85-1.676-2.838-2.42-.986-.741-2.023-1.43-3.11-2.057-1.07-.618-2.183-1.175-3.334-1.664-1.13-.48-2.302-.897-3.51-1.242-.425-.123-.778-.376-1.028-.705-.251-.333-.395-.749-.395-1.183l-.004-9.567c0-.16-.031-.313-.089-.449-.058-.142-.148-.273-.26-.386-.109-.111-.241-.2-.386-.26-.138-.058-.289-.09-.45-.09H35.44c-.162 0-.314.032-.45.09-.145.06-.279.149-.389.258-.213.218-.348.514-.348.837v9.567c0 .458-.157.88-.421 1.215-.275.342-.655.594-1.088.695zm2.067 13.77c-2.07.858-3.94 2.122-5.51 3.69-1.568 1.57-2.831 3.44-3.689 5.511-.827 1.997-1.284 4.191-1.284 6.496 0 2.305.457 4.5 1.284 6.497.859 2.071 2.12 3.94 3.69 5.51 1.569 1.569 3.438 2.831 5.51 3.69 1.997.827 4.192 1.283 6.496 1.283 2.304 0 4.497-.456 6.493-1.284 2.076-.858 3.945-2.12 5.515-3.69 1.568-1.569 2.831-3.438 3.69-5.51.827-1.997 1.282-4.19 1.282-6.496 0-2.305-.455-4.499-1.283-6.496-.858-2.072-2.12-3.941-3.689-5.51-1.57-1.57-3.439-2.833-5.51-3.69-1.999-.828-4.192-1.284-6.498-1.284-2.305 0-4.499.456-6.497 1.283zm-6.735 2.464c1.721-1.721 3.783-3.11 6.079-4.062 2.208-.915 4.624-1.42 7.153-1.42 2.53 0 4.947.505 7.153 1.42 2.296.951 4.36 2.34 6.08 4.062 1.722 1.721 3.111 3.784 4.062 6.08.915 2.208 1.42 4.624 1.42 7.153 0 2.528-.505 4.946-1.42 7.153-.95 2.296-2.34 4.358-4.062 6.079-1.72 1.722-3.782 3.11-6.076 4.062-2.207.915-4.625 1.42-7.157 1.42-2.529 0-4.945-.505-7.152-1.42-2.296-.95-4.359-2.34-6.08-4.062-1.721-1.72-3.11-3.784-4.062-6.079-.915-2.207-1.42-4.624-1.42-7.153s.505-4.945 1.42-7.153c.951-2.296 2.34-4.359 4.062-6.08z" transform="translate(-26 .001) translate(45 72.999)"/>
            <path fill="#D8D3E0" d="M136.575 274.535h3.02c.552 0 1.006.451 1.006 1.004v3.02c0 .553-.454 1.006-1.006 1.006h-3.02c-.553 0-1.005-.453-1.005-1.005v-3.02c0-.554.452-1.005 1.005-1.005M146.887 274.535h3.02c.553 0 1.006.451 1.006 1.004v3.02c0 .553-.453 1.006-1.006 1.006h-3.02c-.552 0-1.004-.453-1.004-1.005v-3.02c0-.554.452-1.005 1.004-1.005M157.2 274.535h3.019c.553 0 1.006.451 1.006 1.004v3.02c0 .553-.453 1.006-1.006 1.006H157.2c-.553 0-1.006-.453-1.006-1.005v-3.02c0-.554.453-1.005 1.006-1.005M167.512 274.535h3.02c.553 0 1.004.451 1.004 1.004v3.02c0 .553-.451 1.006-1.005 1.006h-3.019c-.552 0-1.006-.453-1.006-1.005v-3.02c0-.554.454-1.005 1.006-1.005" transform="translate(-26 .001) translate(45 72.999)"/>
            <path fill="#726AA0" d="M145.874 62.783c.254 0 .506-.008.756-.022h12.743V47.895c0-4.762-2.5-8.968-6.25-11.373l-.01-.005c-.137-.09-.278-.174-.419-.258-4.459-2.808-4.46-5.446-.003-8.254.142-.083.284-.17.422-.259l.01-.005c3.75-2.404 6.25-6.61 6.25-11.373V1.502H146.63c-.25-.013-.502-.022-.756-.022s-.505.009-.756.022h-12.743v14.866c0 4.762 2.5 8.969 6.25 11.373l.01.005c.138.09.28.175.421.26 4.457 2.807 4.456 5.445-.003 8.254-.142.083-.281.168-.419.257l-.009.005c-3.75 2.405-6.25 6.611-6.25 11.373v14.866h12.743c.25.014.502.022.756.022" transform="translate(-26 .001) translate(45 72.999)"/>
            <path fill="#F3D4D8" d="M140.36 57.27h3.707c2.386 0 2.484-2.157 4.151-2.157h7.486c2.026 0 2.413 1.896 2.413 1.896v2.6h-11.521l-.036.002c-.228.013-.458.02-.685.02-.23 0-.458-.007-.687-.02l-.035-.001h-4.794v-2.34M135.44 19.614c-1.163-1.89-1.809-4.09-1.809-6.384 0-10.905 7.385.756 14.898 1.35 1.492.117 2.772-.046 3.863-.382.283.782.471 1.364.471 1.526 0 .653-6.407 5.49-7.518 5.753-1.113.26-6.8.588-9.153-1.242-.243-.19-.495-.398-.753-.621" transform="translate(-26 .001) translate(45 72.999)"/>
            <path fill="#FFFFFE" d="M145.876 50.095c1.217 0 2.212-.995 2.212-2.212v-1.655c0-1.217-.995-2.213-2.212-2.213-1.216 0-2.212.996-2.212 2.213v1.655c0 1.217.996 2.212 2.212 2.212zm2.217-17.711c-.132-1.85 1.176-3.706 3.929-5.44l.016-.01.015-.01c.13-.076.258-.154.384-.235l.013-.008.008-.005c3.507-2.254 5.66-6.123 5.66-10.308 0-10.905-7.387.756-14.898 1.35-7.453.588-9.589-5.82-9.589-5.82v4.47c0 4.19 2.156 8.063 5.663 10.31l.008.006c.13.081.26.162.392.24l.016.01.015.01c2.753 1.733 4.062 3.59 3.93 5.44h.01v7.474c0 1.217.995 2.212 2.211 2.212 1.217 0 2.212-.995 2.212-2.212v-7.474h.005zM158.117 61.506v-4.497c0 1.242-.923 2.157-2.296 2.157h-8.14c-2.386 0-2.484-2.157-4.15-2.157h-7.486c-2.027 0-2.414 1.896-2.414 1.896v2.601h11.522l.034.002c.23.012.458.02.687.02.228 0 .458-.008.686-.02l.035-.002h11.522" transform="translate(-26 .001) translate(45 72.999)"/>
            <path fill="#322B6A" d="M132.768 0h26.212c.93 0 1.69.761 1.69 1.692 0 .93-.76 1.691-1.69 1.691h-26.212c-.93 0-1.691-.761-1.691-1.691S131.838 0 132.768 0M132.768 64.263h26.212c.93 0 1.69-.762 1.69-1.691 0-.931-.76-1.692-1.69-1.692h-26.212c-.93 0-1.691.761-1.691 1.692 0 .93.761 1.69 1.691 1.69" transform="translate(-26 .001) translate(45 72.999)"/>
            <path fill="#0F1321" d="M151.404 0h7.576c.93 0 1.69.761 1.69 1.692 0 .93-.76 1.691-1.69 1.691h-7.576c-.93 0-1.692-.761-1.692-1.691S150.474 0 151.404 0M151.404 64.263h7.576c.93 0 1.69-.762 1.69-1.691 0-.931-.76-1.692-1.69-1.692h-7.576c-.93 0-1.692.761-1.692 1.692 0 .93.762 1.69 1.692 1.69" transform="translate(-26 .001) translate(45 72.999)"/>
            <path fill="#3F357B" d="M211.657 61.568s1.525-2.486 4.373-2.904c2.848-.419 13.4-.336 16.458 1.591 3.057 1.926 1.381 5.695 1.381 5.695l-22.212-4.382" transform="translate(-26 .001) translate(45 72.999)"/>
            <path fill="#EBB4BD" d="M159.934 75.68s-2.436-4.666-2.645-5.918c-.21-1.253-.348-5.777-.904-6.822-.557-1.044-4.282-5.882-4.665-6.614-.383-.73-2.262 1.567-1.183 4.039 1.079 2.47 1.671 2.783 1.671 2.783l-.036 1.115h-10.477s1.045 3.376 5.5 5.707c4.455 2.333 7.483 11.975 7.483 11.975l6.405-3.864-1.149-2.402" transform="translate(-26 .001) translate(45 72.999)"/>
            <path fill="#323657" d="M209.736 62.022s-10.872 2.83-16.202 6.588c-5.33 3.757-18.984 21.48-20.456 22.754 0 0-12.844-19.24-13.595-20.522-1.087-1.852-9.373 2.718-9.41 2.865-.405 1.55 1.854 4.225 3.28 7.736 2.085 5.133 9.033 18.36 11.091 21.73 2.059 3.367 6.793 6.851 14.232 2.554 7.44-4.296 17.879-15.124 17.879-15.124l13.181-28.581" transform="translate(-26 .001) translate(45 72.999)"/>
            <path fill="#FFDED6" d="M229.152 43.284l-.21 4.903v11.571c0 1.132.956 2.918 2.656 2.946 4.297 5.412-.447 10.802-3.633 11.294-3.188.492-18.573-3.215-19.603-4.099-.721-.618 3.888-6.2 3.464-7.992.333-.09-.046.006.29-.104.873-.289 1.7-.702 2.237-1.286 1.677-1.83 1.6-9.993-.078-12.128-1.678-2.135 14.877-5.105 14.877-5.105" transform="translate(-26 .001) translate(45 72.999)"/>
            <path fill="#323657" d="M209.736 62.022c1.02-.257 3.018-.806 3.867-.894 1.187 6.212 7.63 12.433 17.133.975 5.402.93 21.983 5.635 22.959 11.73 0 19.782-7.21 33.055-7.21 57.018 0 10.958 4.064 28.16 3.953 43.318-9.391-1.143-50.707-8.652-57.554-.333-.518-.474-1.363-2.526-.646-5.657 4.133-18.05 2.106-41.246 1.945-61.466l-.152.484c.013-3.269.096-6.335.229-9.201.138-4.72.46-9.189 1.088-13.282 1.416-11.723 3.466-17.572 3.47-17.578 3.975-2.248 9.152-4.389 9.152-4.389l-.008.027c.57-.274 1.157-.53 1.774-.752" transform="translate(-26 .001) translate(45 72.999)"/>
            <path fill="#323657" d="M247.243 67.594c-.844 1.13-1.393 2.263-1.393 2.263-2.4 20.4-6 31.95-27 31.95h-24.73c-.049 1.733-.08 3.525-.089 5.39l.152-.484c.03 3.78.125 7.663.234 11.596 18.91 6.327 37.567 12.03 52.09 13.513-.008-.322-.022-.658-.022-.971 0-23.963 7.21-37.236 7.21-57.018-.373-2.326-3.022-4.45-6.452-6.239" transform="translate(-26 .001) translate(45 72.999)"/>
            <path fill="#3F357B" d="M211.637 61.573c.766-.207 1.523-.395 1.966-.445.825 5.95 7.563 11.277 17.134.976 1.06.198 2.248.308 3.528.773-7.536 12.605-23.4 13.618-22.671-1.076 0-.021.018-.11.043-.228" transform="translate(-26 .001) translate(45 72.999)"/>
            <path fill="#FFFFFE" d="M221.975 70.375c.123-.179.37-.224.548-.1.18.124.224.37.1.549-3.44 4.996-1.574 8.155.421 11.532 1.57 2.655 3.214 5.44 2.662 9.322-.031.215-.232.365-.448.334-.215-.03-.366-.23-.335-.446.515-3.606-1.058-6.27-2.558-8.807-2.129-3.602-4.118-6.97-.39-12.384M217.047 70.395c-.002-.218.172-.397.39-.4.216-.002.395.173.399.39 0 .042.346 14.71-9.3 14.051-.217-.013-.381-.202-.367-.42.014-.218.203-.382.42-.368 8.78.598 8.458-13.214 8.458-13.253" transform="translate(-26 .001) translate(45 72.999)"/>
            <path fill="#FFDED6" d="M188.134 296.115l8.064.565c1.3.09 2.289 1.229 2.198 2.528l-1.1 15.726c-.09 1.3-1.228 2.29-2.528 2.198l-8.064-.563c-1.3-.091-2.29-1.229-2.199-2.53l1.1-15.725c.092-1.3 1.229-2.289 2.53-2.199" transform="translate(-26 .001) translate(45 72.999)"/>
            <path fill="#DABFAD" d="M360 331.5c0 3.59-59.77 6.5-133.5 6.5-73.73 0-133.5-2.91-133.5-6.5s59.77-6.5 133.5-6.5c73.73 0 133.5 2.91 133.5 6.5" transform="translate(-26 .001) translate(45 72.999)"/>
            <path fill="#7777B4" d="M188.12 194.809L183.732 301.509 199.443 301.509 216.163 192.409 188.12 194.809" transform="translate(-26 .001) translate(45 72.999)"/>
            <path fill="#7777B4" d="M186.341 238.068l-.78 18.98h7.412c5.5 0 8.58 2.553 7.976 6.5-.6 3.946-4.276 28.023-4.276 28.023s-.227 3.998-12.7 4.116l-.24 5.822h15.71l9.184-59.93c-7.833-1.3-15.983-2.559-22.286-3.511" transform="translate(-26 .001) translate(45 72.999)"/>
            <path fill="#0F1321" d="M195.158 301.509h.648l7.88-51.645c.026-.175-.094-.338-.269-.363-.175-.027-.338.093-.364.268l-7.895 51.74" transform="translate(-26 .001) translate(45 72.999)"/>
            <path fill="#7777B4" d="M220.661 198.258L257.185 304.784 272.325 297.91 250.729 196.309 220.661 198.258" transform="translate(-26 .001) translate(45 72.999)"/>
            <path fill="#7777B4" d="M230.347 226.51l26.838 78.274 15.14-6.874-1.216-5.72c-3.331 1.076-8.249 2.574-10.117 2.67-2.938.152-3.992-.979-4.293-1.807-.302-.828-7.458-23.275-8.889-28.85-1.431-5.574 2.335-7.382 6.78-7.382h9.001l-5.395-25.384c-8.57-2.711-20.246-4.867-27.85-4.928" transform="translate(-26 .001) translate(45 72.999)"/>
            <path fill="#0F1321" d="M269.738 299.083l.593-.27-11.362-49.82c-.039-.172-.21-.28-.382-.242-.172.039-.28.21-.241.382l11.392 49.95" transform="translate(-26 .001) translate(45 72.999)"/>
            <path fill="#3F357B" d="M183.694 299.38h16.95c.864 0 1.572.709 1.572 1.574v5.365c0 .864-.708 1.573-1.573 1.573h-16.95c-.864 0-1.573-.709-1.573-1.573v-5.365c0-.865.709-1.574 1.574-1.574" transform="translate(-26 .001) translate(45 72.999)"/>
            <path fill="#322B6A" d="M184.162 328.717s-23.322.62-24.223-1.313l.002-2.577c.002-1.031 1.067-2.51 3.968-3.475 2.9-.963 9.087-2.825 10.988-3.499 1.9-.675 7.352-7.563 8.125-8.399.775-.837 4.38 1.873 5.152 2.325.773.452.256 1.546-.132 2.834s-3.88 14.104-3.88 14.104" transform="translate(-26 .001) translate(45 72.999)"/>
            <path fill="#3F357B" d="M159.935 331.333l37.304.039c.442 0 .803-.36.805-.802l.002-2.323c0-.443-.361-.805-.802-.805l-37.305-.038c-.442 0-.804.36-.804.803l-.002 2.322c-.001.442.36.804.802.804" transform="translate(-26 .001) translate(45 72.999)"/>
            <path fill="#3F357B" d="M159.935 331.334l12.678.014c.442 0 .803-.361.804-.804l.002-2.322c0-.442-.36-.804-.804-.805l-12.676-.013c-.443 0-.804.36-.805.803l-.002 2.322c0 .442.36.804.803.805" transform="translate(-26 .001) translate(45 72.999)"/>
            <path fill="#171E35" d="M176.442 318.692c.128.45 1.285 2.706.48 3.254-.806.546-3.385 2.508-4.835 2.507l-8.342-.01c-3.833-.003-2.947-1.339-2.947-1.339-.6.607-.855 1.218-.857 1.723l-.002 2.577 37.303.038s1.581-1.834 1.585-6.15c.005-4.317.216-6.797-.411-7.49-.628-.694-1.063-.34-1.063-.34-2.9 2.51-6.41.703-8.246-.297-.195-.106-.382-.214-.557-.321-1.49-.891-2.401-1.687-3.726-.94-1.482.836-6.705 4.534-7.543 5.114-.838.58-.967 1.222-.839 1.674" transform="translate(-26 .001) translate(45 72.999)"/>
            <path fill="#0F1321" d="M159.94 325.464l-.001 1.94 37.303.038s1.581-1.834 1.585-6.15c.005-4.317.216-6.797-.411-7.49.083 1.383-.653 2.931-1.94 2.93l-7.435-.008c-2.727-.003-3.28 1.457-3.28 1.457s-1.379 2.725-2.373 4.653c-.994 1.926-2.647 3.241-3.86 3.24-1.212 0-15.955-.016-17.938-.018-.846-.001-1.35-.277-1.65-.592" transform="translate(-26 .001) translate(45 72.999)"/>
            <path fill="#FFDED6" d="M268.543 297.399l-7.811 2.08c-1.26.336-2.015 1.64-1.68 2.898l4.058 15.235c.335 1.259 1.638 2.014 2.898 1.68l7.812-2.08c1.26-.336 2.014-1.64 1.679-2.9l-4.056-15.234c-.336-1.258-1.641-2.015-2.9-1.68" transform="translate(-26 .001) translate(45 72.999)"/>
            <path fill="#0F1321" d="M269.99 327.466h-7.208c-.777 0-1.412-.578-1.412-1.285v-12.608c0-.708.635-1.287 1.412-1.287h7.208c.778 0 1.414.58 1.414 1.287v12.608c0 .707-.636 1.285-1.414 1.285" transform="translate(-26 .001) translate(45 72.999)"/>
            <path fill="#322B6A" d="M264.506 312.106l-.814-2.268c-.12-.336-.497-1.582 1.362-1.582h4.51c1.21 0 3.132.386 3.884 2.478.75 2.09 2.09 5.827 2.55 7.105.459 1.278 7.02 4.441 7.996 5.399.976.96 1.294 2.044 1.235 2.269-.06.223-13.122 1.565-14.941.798-1.819-.767-3.826-8.018-3.826-8.018l-1.956-6.181" transform="translate(-26 .001) translate(45 72.999)"/>
            <path fill="#171E35" d="M270.403 327.913l-1.32-.446s-.638-.416-.93-1.231l-.961-2.677c-.233-.649-1.032-.758-1.445-1.908-.414-1.15-2.333-6.5-2.863-7.979-.531-1.476 1.14-2.371 2.135-3.244.997-.874 3.113-.065 3.73 1.66.621 1.726 1.316 3.663 1.836 5.112.52 1.449.469 2.087-.379 2.79-.848.702-1.444 1.255-1.702 1.448-.258.191.234 1.108.891 1.83.659.726 2.62 2.28 5.94 2.28h6.457c1.66 0 1.972-.959 1.482-2.322s-7.218-2.38-8.33-5.475l-2.113-5.888c-.25-.7.274-.923.497-1.083.223-.16.743.016 2.096 1.245 1.354 1.23 1.419 2.19 2.185 4.33.77 2.14 2.86 4.057 5.283 5.525 2.421 1.47 4.612 2.645 5.668 5.587 1.056 2.943-15.873 3.422-18.157.446" transform="translate(-26 .001) translate(45 72.999)"/>
            <path fill="#0F1321" d="M285.222 323.34c1.436 1 2.638 2.173 3.338 4.127.93 2.588-12.058 3.27-16.752 1.371l3.681.59-2.359-1.637s.095-1.45 1.235-1.45h9.36c1.241 0 2.393-.499 1.497-3zm-10.763-12.125c.261.196.58.46.965.811 1.354 1.23 1.419 2.188 2.185 4.328.395 1.096 1.134 2.133 2.087 3.08 0 0-2.85-2.386-3.392-3.266-.317-.516-1.182-2.99-1.845-4.953zm-9.04 9.522l-2.535-7.065c-.531-1.476 1.14-2.371 2.135-3.244.076-.066.157-.122.243-.17-.028.027-.642.597-.182 1.88.471 1.31.952 2.649 1.5 4.179.517 1.44.627 2.784-1.162 4.42z" transform="translate(-26 .001) translate(45 72.999)"/>
            <path fill="#3F357B" d="M270.482 331.363h19.478c.48 0 .746-.357.589-.796l-.828-2.304c-.157-.438-.679-.797-1.16-.797h-19.478c-.482 0-.746.359-.588.797l.826 2.304c.158.439.68.796 1.161.796" transform="translate(-26 .001) translate(45 72.999)"/>
            <path fill="#3F357B" d="M262.985 331.364h13.472c.481 0 .747-.358.59-.797l-.828-2.304c-.158-.437-.68-.797-1.162-.797h-13.471c-.482 0-.747.36-.59.797l.827 2.304c.158.439.68.797 1.162.797" transform="translate(-26 .001) translate(45 72.999)"/>
            <path fill="#FFFFFE" d="M268.848 314.055c-.198-.05-.37.02-.386.16-.015.137.132.29.33.34l2.182.554-1.784.553c-.162.05-.2.204-.086.341.115.138.339.21.5.16l2.485-.772 3.04.772c.195.05.368-.022.384-.16.016-.137-.132-.29-.329-.34l-2.183-.554 1.785-.554c.162-.05.2-.203.085-.34-.115-.14-.339-.21-.5-.16l-2.485.77-3.038-.77zm.928 2.586c-.198-.05-.37.021-.385.16-.016.137.132.29.33.34l2.18.554-1.783.553c-.163.05-.2.203-.086.341.116.138.339.21.5.16l2.487-.772 3.037.771c.197.05.37-.021.385-.159.016-.138-.131-.29-.33-.34l-2.18-.554 1.784-.554c.161-.05.199-.203.084-.34-.115-.139-.338-.21-.499-.16l-2.486.771-3.038-.771zm4.082-4.671c.161-.05.2-.204.085-.341-.114-.139-.339-.21-.5-.16l-2.485.77-3.039-.77c-.197-.05-.37.021-.385.16-.015.137.132.29.33.34l2.182.554-1.786.554c-.16.05-.198.203-.083.34.115.138.338.21.5.16l2.484-.771 3.038.771c.198.05.37-.022.386-.16.015-.137-.133-.29-.329-.34l-2.182-.554 1.784-.553z" transform="translate(-26 .001) translate(45 72.999)"/>
            <path fill="#3F357B" d="M255.911 300.051l16.363-4.42c.835-.225 1.703.274 1.929 1.11l1.399 5.18c.225.834-.274 1.701-1.108 1.927l-16.364 4.418c-.836.226-1.704-.272-1.929-1.107l-1.4-5.18c-.225-.835.274-1.703 1.11-1.928" transform="translate(-26 .001) translate(45 72.999)"/>
            <path fill="#1E4774" d="M138.567 254.062h146.876c4.357 0 7.922-3.565 7.922-7.922V114.49c0-4.357-3.565-7.923-7.922-7.923H138.567c-4.358 0-7.923 3.566-7.923 7.923v131.65c0 4.357 3.565 7.922 7.923 7.922" transform="translate(-26 .001) translate(45 72.999)"/>
            <path fill="#FFFFFE" d="M142.168 116.455h137.64c3.285 0 5.972 2.689 5.972 5.973v104.648c0 8.458-6.92 15.377-15.377 15.377h-14.928c-8.457 0-17.074-7.091-15.378-15.377l1.439-7.015h-99.368c-3.285 0-5.972-2.688-5.972-5.972v-91.661c0-3.284 2.687-5.973 5.972-5.973" transform="translate(-26 .001) translate(45 72.999)"/>
            <path fill="url(#prefix__c)" d="M142.168 119.418c-1.65 0-3.01 1.36-3.01 3.01v19.038c0 1.65 1.36 3.01 3.01 3.01h137.64c1.65 0 3.01-1.36 3.01-3.01v-19.038c0-1.65-1.36-3.01-3.01-3.01h-137.64" transform="translate(-26 .001) translate(45 72.999)"/>
            <path fill="#D8D3E0" d="M154.708 211.662v.189h95.837c2.57.665 4.482 3.011 4.482 5.782v9.443c0 8.458 6.92 15.377 15.376 15.377H139.332c-8.458 0-15.377-6.92-15.377-15.377v-9.443c0-3.285 2.687-5.971 5.97-5.971h24.783" transform="translate(-26 .001) translate(45 72.999)"/>
            <path fill="url(#prefix__d)" d="M143.213 148.67h15.462c2.23 0 4.056 1.824 4.056 4.055v15.462c0 2.23-1.825 4.055-4.056 4.055h-15.462c-2.23 0-4.055-1.825-4.055-4.055v-15.462c0-2.23 1.825-4.056 4.055-4.056" transform="translate(-26 .001) translate(45 72.999)"/>
            <path fill="#DAE6EE" d="M173.236 148.67h15.462c2.23 0 4.054 1.824 4.054 4.055v15.462c0 2.23-1.824 4.055-4.054 4.055h-15.462c-2.232 0-4.056-1.825-4.056-4.055v-15.462c0-2.23 1.824-4.056 4.056-4.056M203.257 148.67h15.462c2.231 0 4.055 1.824 4.055 4.055v15.462c0 2.23-1.824 4.055-4.055 4.055h-15.462c-2.23 0-4.056-1.825-4.056-4.055v-15.462c0-2.23 1.826-4.056 4.056-4.056M233.28 148.67h15.461c2.23 0 4.055 1.824 4.055 4.055v15.462c0 2.23-1.825 4.055-4.055 4.055H233.28c-2.23 0-4.055-1.825-4.055-4.055v-15.462c0-2.23 1.825-4.056 4.055-4.056M263.301 148.67h15.461c2.231 0 4.057 1.824 4.057 4.055v15.462c0 2.23-1.826 4.055-4.057 4.055h-15.46c-2.232 0-4.056-1.825-4.056-4.055v-15.462c0-2.23 1.824-4.056 4.055-4.056M143.213 178.076h15.462c2.23 0 4.056 1.825 4.056 4.055v15.462c0 2.23-1.825 4.056-4.056 4.056h-15.462c-2.23 0-4.055-1.826-4.055-4.056v-15.462c0-2.23 1.825-4.055 4.055-4.055M173.236 178.076h15.462c2.23 0 4.054 1.825 4.054 4.055v15.462c0 2.23-1.824 4.056-4.054 4.056h-15.462c-2.232 0-4.056-1.826-4.056-4.056v-15.462c0-2.23 1.824-4.055 4.056-4.055" transform="translate(-26 .001) translate(45 72.999)"/>
            <path fill="#AD3C5C" d="M271.507 124.978c1.869 0 3.385 1.515 3.385 3.384 0 1.87-1.516 3.385-3.385 3.385-1.869 0-3.385-1.515-3.385-3.385 0-1.869 1.516-3.384 3.385-3.384" transform="translate(-26 .001) translate(45 72.999)"/>
            <path fill="#0D1014" d="M271.507 126.545c1.003 0 1.817.815 1.817 1.817 0 1.004-.814 1.818-1.817 1.818-2.22 0-4.237-.907-5.698-2.367-1.461-1.462-2.368-3.48-2.368-5.7v-15.83c0-2.22.907-4.237 2.368-5.697 1.461-1.462 3.478-2.369 5.698-2.369s4.237.907 5.697 2.369c1.462 1.46 2.368 3.477 2.368 5.698v.283h-3.633v-.283c0-1.218-.5-2.325-1.304-3.13-.804-.803-1.912-1.303-3.128-1.303-1.217 0-2.324.5-3.129 1.303-.804.805-1.304 1.912-1.304 3.13v15.83c0 1.217.5 2.324 1.304 3.128.805.805 1.912 1.303 3.129 1.303" transform="translate(-26 .001) translate(45 72.999)"/>
            <path fill="url(#prefix__e)" d="M203.257 178.076h15.462c2.231 0 4.055 1.825 4.055 4.055v15.462c0 2.23-1.824 4.056-4.055 4.056h-15.462c-2.23 0-4.056-1.826-4.056-4.056v-15.462c0-2.23 1.826-4.055 4.056-4.055" transform="translate(-26 .001) translate(45 72.999)"/>
            <path fill="#DAE6EE" d="M233.28 178.076h15.461c2.23 0 4.055 1.825 4.055 4.055v15.462c0 2.23-1.825 4.056-4.055 4.056H233.28c-2.23 0-4.055-1.826-4.055-4.056v-15.462c0-2.23 1.825-4.055 4.055-4.055M263.301 178.076h15.461c2.231 0 4.057 1.825 4.057 4.055v15.462c0 2.23-1.826 4.056-4.057 4.056h-15.46c-2.232 0-4.056-1.826-4.056-4.056v-15.462c0-2.23 1.824-4.055 4.055-4.055" transform="translate(-26 .001) translate(45 72.999)"/>
            <path fill="#AD3C5C" d="M154.638 124.978c1.868 0 3.385 1.515 3.385 3.384 0 1.87-1.517 3.385-3.385 3.385-1.87 0-3.385-1.515-3.385-3.385 0-1.869 1.516-3.384 3.385-3.384" transform="translate(-26 .001) translate(45 72.999)"/>
            <path fill="#0D1014" d="M154.638 126.545c1.003 0 1.816.815 1.816 1.817 0 1.004-.813 1.818-1.816 1.818-2.22 0-4.237-.907-5.698-2.367-1.462-1.462-2.369-3.48-2.369-5.7v-15.83c0-2.22.907-4.237 2.37-5.697 1.46-1.462 3.477-2.369 5.697-2.369s4.237.907 5.697 2.369c1.462 1.46 2.369 3.477 2.369 5.698v.283h-3.634v-.283c0-1.218-.5-2.325-1.304-3.13-.803-.803-1.911-1.303-3.128-1.303s-2.325.5-3.13 1.303c-.803.805-1.303 1.912-1.303 3.13v15.83c0 1.217.5 2.324 1.304 3.128.804.805 1.912 1.303 3.129 1.303" transform="translate(-26 .001) translate(45 72.999)"/>
            <path fill="#FFDED6" d="M202.61 35.457c-.129.02-.255.042-.38.07h-.004.001c-2.3.513-4.025 2.56-4.04 5.015-.018 2.856 2.284 5.184 5.14 5.202 2.854.017 5.183-2.284 5.201-5.139.01-1.66-.762-3.14-1.973-4.094.152 1.525-.066 3.417-2.012 3.632l.018-2.983c.008-1.206-1.125-1.747-1.951-1.703M239.922 34.975c.129.015.254.035.38.06l.004.001c2.311.452 4.089 2.453 4.168 4.908.09 2.854-2.15 5.241-5.004 5.332-2.854.092-5.24-2.148-5.332-5.002-.053-1.659.681-3.159 1.866-4.144-.111 1.529.154 3.414 2.105 3.578l-.095-2.98c-.039-1.206 1.08-1.776 1.908-1.753" transform="translate(-26 .001) translate(45 72.999)"/>
            <path fill="#FFDED6" d="M220.933 9.391c-9.735.126-17.599 8.194-17.473 17.93l.208 16.099c.126 9.735 8.195 17.596 17.93 17.471 9.733-.126 17.596-8.193 17.47-17.929l-.208-16.099c-.125-9.735-8.194-17.598-17.927-17.472" transform="translate(-26 .001) translate(45 72.999)"/>
            <path fill="#13375B" d="M221.598 60.891c9.733-.126 17.596-8.194 17.47-17.929l-.208-16.099c-.08-6.28-3.467-11.779-8.474-14.859-9.16.257-17.08.593-17.793.597-1.58.008-8.059 11.788-8.059 11.788l2.523 2.9h10.884c2.034 0 3.013 1.808 4.858 1.808h7.12c1.506 0 3.727 1.356 3.727 5.235 0 3.88 2.147 5.65 2.147 5.65v5.987c0 2.562-1.937 11.637-14.195 14.922" transform="translate(-26 .001) translate(45 72.999)"/>
            <path fill="#13375B" d="M209.874 23.767c-.899.734-1.547 1.834-1.526 3.448.049 3.806-.634 6.834-3.062 6.865l.038 2.986c.023 1.67-.119 3.36-1.695 3.38-.045-3.591-1.159-4.988-1.159-4.988l-.116-9.003c-.055-4.2 1.054-9.859 6.517-13.802 7.067-5.102 17.006-5.23 24.205-.312 5.562 3.8 6.815 9.428 6.87 13.628l.115 9.003s-1.075 1.426-1.028 5.016c-1.575.02-1.76-1.666-1.782-3.335l-.039-2.986c-2.427.032-3.19-2.977-3.237-6.783-.022-1.642-.722-2.734-1.664-3.444 1.216 2.218.652 3.948-2.426 1.222 2.047 3.899-4.887 3.975-6.976.305 0 0-.562 2.062-1.62 1.72-1.056-.34-1.143-2.78-1.143-2.78-1.689 3.588-6.659 4.011-7.058.213-1.307 2.33-4.379 2.225-3.214-.353" transform="translate(-26 .001) translate(45 72.999)"/>
            <path fill="#13375B" d="M209.874 23.767c-.203.167-.394.351-.567.556-.726.764-2.136.989-3.002-.443-.6-.991-.966-5.073-1.134-7.487.926-1.338 2.133-2.61 3.7-3.74 7.067-5.102 17.006-5.23 24.205-.312 2.176 1.487 3.692 3.253 4.735 5.105.361 3.3-2.525 7.903-3.109 8.091-.583.189-1.141-.58-1.141-.58h-.001c-.299-.635-.739-1.132-1.25-1.517 1.217 2.218.653 3.948-2.425 1.222 2.047 3.899-4.887 3.975-6.977.305 0 0-.561 2.062-1.619 1.72-1.056-.34-1.143-2.78-1.143-2.78-1.689 3.588-6.659 4.011-7.058.213-1.307 2.33-4.379 2.225-3.214-.353" transform="translate(-26 .001) translate(45 72.999)"/>
            <path fill="#13375B" d="M206.356 14.898c.712-.79 1.545-1.545 2.515-2.245.57-.412 1.162-.792 1.768-1.14 2.306 9.208 20.704 5.757 24.25 2.261.448.41.858.835 1.233 1.27-8.573 6.556-24.944 8.188-29.766-.146" transform="translate(-26 .001) translate(45 72.999)"/>
            <path fill="#EBB4BD" d="M245.89 157.336c-2.456 1.617-.146 1.165-2.263 2.9-1.037.852-5.136 1.86-5.68 2.69-.546.83-3.414 4.706-4.136 5.63-.72.923 1.692 1.134 3.127.684 0 0-2.97 6.206-3.683 7.776-.713 1.57.517 1.916 1.565 1.51 1.047-.404 3.288-4.49 3.288-4.49s2.11.681 3.251.253c0 0 2.227.752 2.956.674.729-.079 1.74-.425 1.74-.425s1.807.057 3.222-.887c1.413-.943 2.248-8.719 2.489-9.377.242-.658-.347-2.657-.347-2.657l-5.528-4.28" transform="translate(-26 .001) translate(45 72.999)"/>
            <path fill="#E89AA4" d="M244.724 158.338c-.311.539.395.676-1.097 1.899-.325.267-.952.549-1.676.838 4.146 4.218 6.31 4.79 7.795 5.285.552.184.98.972 1.296 2.07.37-1.99.611-3.849.724-4.156.242-.658-.347-2.657-.347-2.657l-3.994-3.091c-.936-.13-1.854-.198-2.7-.188" transform="translate(-26 .001) translate(45 72.999)"/>
            <path fill="#323657" d="M247.401 67.675s5.11 4.451 7.225 6.487c2.115 2.036 4.176 6.896 6.338 14.867 9.4 34.65 9.87 45.225-7.527 76.8 0 0-.157.549-1.215.352-1.056-.194-9.654-4.54-10.163-6.535 0 0-.236-.666.43-1.646 7.612-11.195 10.132-40.26 4.093-53.792-2.205-4.939-5.604-23.7.819-36.533" transform="translate(-26 .001) translate(45 72.999)"/>
            <path fill="#D8D3E0" d="M160.698 27.262h3.02c.552 0 1.005.452 1.005 1.005v3.02c0 .552-.453 1.006-1.005 1.006h-3.02c-.553 0-1.005-.454-1.005-1.006v-3.02c0-.553.452-1.005 1.005-1.005M171.01 27.262h3.02c.552 0 1.006.452 1.006 1.005v3.02c0 .552-.454 1.006-1.006 1.006h-3.02c-.553 0-1.005-.454-1.005-1.006v-3.02c0-.553.452-1.005 1.006-1.005M181.323 27.262h3.019c.553 0 1.006.452 1.006 1.005v3.02c0 .552-.453 1.006-1.006 1.006h-3.019c-.554 0-1.005-.454-1.005-1.006v-3.02c0-.553.451-1.005 1.005-1.005M191.635 27.262h3.02c.552 0 1.004.452 1.004 1.005v3.02c0 .552-.452 1.006-1.004 1.006h-3.02c-.553 0-1.006-.454-1.006-1.006v-3.02c0-.553.453-1.005 1.006-1.005" transform="translate(-26 .001) translate(45 72.999)"/>
            <path fill="#FF7B5B" d="M282.246 213.423h34.492c4.975 0 9.045 4.071 9.045 9.046v34.492c0 4.975-4.07 9.046-9.045 9.046h-34.492c-4.976 0-9.047-4.071-9.047-9.046v-34.492c0-4.975 4.071-9.046 9.047-9.046" transform="translate(-26 .001) translate(45 72.999)"/>
            <path fill="#FFFFFE" d="M316.166 252.671h-6.454v-13.718c0-1.67.033-3.194.099-4.573-.396.533-.89 1.089-1.483 1.662l-2.67 2.433-3.302-4.47 8.082-7.246h5.728v25.912zm-17.204-20.287c0 1.602-.445 2.981-1.337 4.137-.889 1.15-2.18 1.984-3.86 2.505v.108c3.928.539 5.89 2.589 5.89 6.133 0 2.414-.87 4.307-2.6 5.693-1.735 1.385-4.141 2.074-7.218 2.074-1.268 0-2.438-.103-3.52-.303-1.077-.2-2.242-.568-3.501-1.1v-5.813c1.034.574 2.083 1.004 3.148 1.282 1.066.278 2.055.417 2.955.417 1.396 0 2.413-.218 3.05-.647.636-.43.956-1.107.956-2.031 0-.709-.166-1.253-.495-1.64-.334-.38-.873-.672-1.615-.871-.736-.194-1.704-.29-2.895-.29h-1.45v-5.263h1.482c3.231 0 4.846-.914 4.846-2.734 0-.684-.241-1.191-.715-1.525-.477-.333-1.12-.495-1.927-.495-1.5 0-3.054.556-4.664 1.663l-2.643-4.67c1.248-.943 2.522-1.615 3.824-2.02 1.303-.4 2.796-.598 4.483-.598 2.433 0 4.345.53 5.729 1.596 1.385 1.059 2.077 2.523 2.077 4.392z" transform="translate(-26 .001) translate(45 72.999)"/>
            <path fill="#D8D3E0" d="M106.066 226.913c1.493 0 2.71-1.218 2.71-2.711 0-1.493-1.217-2.713-2.71-2.713-1.494 0-2.712 1.22-2.712 2.713s1.218 2.711 2.712 2.711" transform="translate(-26 .001) translate(45 72.999)"/>
            <g>
                <path fill="#D8D3E0" d="M35.977.196c2.688 0 4.887 2.2 4.887 4.889v7.518c0 2.688-2.2 4.888-4.887 4.888-2.69 0-4.89-2.2-4.89-4.888V5.085c0-2.688 2.2-4.889 4.89-4.889" transform="translate(-26 .001) translate(45 72.999) translate(46.8 135.857)"/>
                <path fill="#D8D3E0" d="M27.69.197h16.574c2.15 0 3.911 1.76 3.911 3.911 0 2.152-1.76 3.913-3.911 3.913H27.689c-2.152 0-3.912-1.76-3.912-3.913 0-2.151 1.76-3.91 3.912-3.91" transform="translate(-26 .001) translate(45 72.999) translate(46.8 135.857)"/>
                <path fill="#C9BED3" d="M38.079 79.012c18.405 0 33.416-15.011 33.416-33.416 0-18.404-15.011-33.416-33.416-33.416-18.404 0-33.415 15.012-33.415 33.416 0 18.405 15.01 33.416 33.415 33.416" transform="translate(-26 .001) translate(45 72.999) translate(46.8 135.857)"/>
                <path fill="#775298" d="M54.575 8.543c1.437.83 1.933 2.684 1.104 4.12l-2.319 4.018c-.83 1.437-2.684 1.933-4.12 1.103h-.001c-1.436-.828-1.932-2.683-1.103-4.12l2.319-4.018c.83-1.435 2.684-1.933 4.12-1.103" transform="translate(-26 .001) translate(45 72.999) translate(46.8 135.857)"/>
                <path fill="#775298" d="M50.146 5.986l8.859 5.114c1.148.664 1.546 2.147.883 3.297-.664 1.15-2.149 1.547-3.298.883l-8.858-5.113c-1.15-.664-1.547-2.148-.883-3.297.664-1.151 2.148-1.548 3.297-.884M12.255 8.543c-1.436.83-1.933 2.684-1.103 4.12l2.32 4.018c.829 1.437 2.682 1.933 4.12 1.103 1.437-.828 1.933-2.683 1.104-4.12l-2.32-4.018c-.829-1.435-2.683-1.933-4.12-1.103" transform="translate(-26 .001) translate(45 72.999) translate(46.8 135.857)"/>
                <path fill="#775298" d="M16.684 5.986L7.826 11.1c-1.149.664-1.547 2.147-.883 3.297.663 1.15 2.148 1.547 3.297.883l8.858-5.113c1.15-.664 1.548-2.148.884-3.297-.664-1.151-2.148-1.548-3.298-.884M33.416 0c2.399 0 4.36 1.962 4.36 4.36v6.707c0 2.399-1.961 4.36-4.36 4.36-2.398 0-4.362-1.961-4.362-4.36V4.36c0-2.398 1.964-4.36 4.362-4.36" transform="translate(-26 .001) translate(45 72.999) translate(46.8 135.857)"/>
                <path fill="#775298" d="M33.415 76.761c18.404 0 33.416-15.011 33.416-33.416 0-18.404-15.012-33.416-33.416-33.416C15.011 9.929 0 24.94 0 43.345 0 61.75 15.011 76.76 33.415 76.76" transform="translate(-26 .001) translate(45 72.999) translate(46.8 135.857)"/>
                <path fill="#FFFFFE" d="M33.415 69.494c14.403 0 26.15-11.746 26.15-26.15 0-14.4-11.747-26.148-26.15-26.148-14.403 0-26.15 11.747-26.15 26.149 0 14.403 11.747 26.15 26.15 26.15" transform="translate(-26 .001) translate(45 72.999) translate(46.8 135.857)"/>
                <path fill="#775298" d="M26.022 0H40.81c1.92 0 3.489 1.57 3.489 3.49 0 1.919-1.57 3.49-3.49 3.49H26.023c-1.92 0-3.49-1.571-3.49-3.49 0-1.92 1.57-3.49 3.49-3.49" transform="translate(-26 .001) translate(45 72.999) translate(46.8 135.857)"/>
                <path fill="#13182C" d="M33.416 19.908c.528 0 .96.432.96.96v1.527c0 .527-.432.96-.96.96-.53 0-.961-.433-.961-.96v-1.527c0-.528.432-.96.961-.96M33.416 63.335c.528 0 .96.433.96.961v1.525c0 .529-.432.962-.96.962-.53 0-.961-.433-.961-.962v-1.525c0-.528.432-.961.961-.961M49.989 26.772c.373.374.373.985 0 1.36L48.91 29.21c-.374.374-.986.374-1.36 0-.373-.374-.373-.986 0-1.36l1.079-1.078c.372-.373.985-.373 1.36 0M19.28 57.48c.375.374.375.986 0 1.36l-1.078 1.077c-.373.375-.986.375-1.36 0-.373-.373-.373-.985 0-1.359l1.079-1.078c.373-.374.985-.374 1.36 0M56.853 43.345c0 .53-.432.961-.96.961h-1.527c-.528 0-.96-.432-.96-.961 0-.53.432-.962.96-.962h1.527c.528 0 .96.433.96.962M13.425 43.345c0 .53-.432.961-.96.961h-1.526c-.528 0-.96-.432-.96-.961 0-.53.432-.962.96-.962h1.526c.528 0 .96.433.96.962M49.989 59.917c-.375.375-.988.375-1.36 0L47.55 58.84c-.374-.374-.374-.986 0-1.36.373-.374.985-.374 1.36 0l1.078 1.078c.373.374.373.986 0 1.36M19.28 29.21c-.374.374-.986.374-1.36 0l-1.077-1.078c-.374-.375-.374-.986 0-1.36.373-.373.986-.373 1.36 0l1.078 1.078c.374.374.374.986 0 1.36" transform="translate(-26 .001) translate(45 72.999) translate(46.8 135.857)"/>
                <path fill="#D6435A" d="M33.416 26.986c.528 0 .96.432.96.96V43.18c0 .53-.432.962-.96.962-.53 0-.961-.433-.961-.962V27.947c0-.529.432-.961.961-.961" transform="translate(-26 .001) translate(45 72.999) translate(46.8 135.857)"/>
                <path fill="#D6435A" d="M21.848 54.913c-.374-.375-.374-.986 0-1.36l10.77-10.772c.375-.373.987-.373 1.36 0 .375.375.375.986 0 1.36l-10.77 10.772c-.374.373-.986.373-1.36 0" transform="translate(-26 .001) translate(45 72.999) translate(46.8 135.857)"/>
            </g>
        </g>
    </g>
</svg>
