<svg xmlns="http://www.w3.org/2000/svg" width="58" height="59" viewBox="0 0 58 59">
    <path fill="#7752BE" d="M2.624 14.857c4.154 1.486 6.03 4.726 8.009 8.144 1.975 3.411 4.019 6.93 8.379 8.754-.002.082-.012.162-.012.245 0 3.859 3.141 7 7 7 .492 0 .972-.052 1.436-.15l5.924 5.924-.008.006L31 46.491V59H12V48.941c4.493-.499 8-4.316 8-8.941v-1h-2v1c0 3.859-3.141 7-7 7H3.913l-.976-10.742L0 35.279V25c0-3.678.957-7.134 2.624-10.143zM29 54h-2v2h2v-2zm0-4h-2v2h2v-2zm3.065-14.521l5.381 5.381c-.756.949-1.6 1.835-2.522 2.65l-5.445-5.445c1.074-.618 1.968-1.512 2.586-2.586zM21 4c3.335 0 6.643.805 9.589 2.319l.873 1.455c-.28.564-.522 1.153-.725 1.761L28 10.219v7.562l2.736.683c.204.609.446 1.198.725 1.761l-1.448 2.415 5.346 5.347 2.415-1.449c.564.279 1.153.521 1.761.725L40.219 30h1.663c-.349 3.328-1.476 6.47-3.255 9.213l-5.777-5.777c.098-.464.15-.944.15-1.436 0-3.86-3.141-7-7-7-3.058 0-5.659 1.975-6.609 4.715-3.466-1.619-5.21-4.58-7.026-7.716-2.022-3.493-4.115-7.087-8.671-8.869C7.483 7.622 13.824 4 21 4zm5 23c2.757 0 5 2.243 5 5s-2.243 5-5 5-5-2.243-5-5 2.243-5 5-5zm0 2c-1.654 0-3 1.346-3 3s1.346 3 3 3 3-1.346 3-3-1.346-3-3-3zm0 2c.552 0 1 .448 1 1s-.448 1-1 1-1-.448-1-1 .448-1 1-1zM46.219 0l.581 2.324.551.16c.859.249 1.675.585 2.426.999l.504.277 2.049-1.229 3.139 3.139-1.229 2.049.277.503c.414.753.75 1.569.999 2.426l.16.552 2.324.581v4.438l-2.323.58-.16.552c-.249.857-.585 1.673-.999 2.426l-.277.503 1.229 2.049-3.139 3.139-2.049-1.229-.504.277c-.751.414-1.568.749-2.426.999l-.552.161L46.219 28h-4.438l-.58-2.323-.552-.161c-.859-.249-1.675-.585-2.426-.999l-.504-.277-2.049 1.229-3.139-3.139 1.229-2.049-.277-.503c-.414-.753-.75-1.569-.999-2.426l-.16-.552L30 16.219v-4.438l2.324-.581.16-.552c.249-.857.585-1.673.999-2.426l.277-.503-1.229-2.049 3.139-3.139 2.048 1.23.504-.277c.751-.414 1.568-.749 2.426-.999l.552-.161L41.781 0h4.438zM44 4c-5.514 0-10 4.486-10 10s4.486 10 10 10 10-4.486 10-10S49.514 4 44 4zm0 2c4.411 0 8 3.589 8 8s-3.589 8-8 8-8-3.589-8-8 3.589-8 8-8zm0 2c-3.309 0-6 2.691-6 6s2.691 6 6 6 6-2.691 6-6-2.691-6-6-6zm0 2c2.21 0 4 1.79 4 4s-1.79 4-4 4-4-1.79-4-4 1.79-4 4-4zm-33.557-.79c-.913.611-1.778 1.307-2.572 2.068l1.383 1.444c.711-.681 1.486-1.304 2.302-1.851zm16.891-2.132C22.237 5.271 16.26 5.791 11.498 8.551l1.004 1.73c4.259-2.471 9.613-2.932 14.164-1.319z"/>
</svg>
