<svg xmlns="http://www.w3.org/2000/svg" width="54" height="54" viewBox="0 0 54 54">
    <path fill="#FAB005" fill-rule="evenodd" d="M48.138 47.312c3.163 0 5.752 2.522 5.845 5.668.009.059.017.118.017.177 0 .472-.371.843-.843.843H41.744c-.464 0-.843-.371-.843-.843 0-3.222 2.623-5.845 5.845-5.845h1.392zm-13.631 0c3.163 0 5.744 2.522 5.845 5.668.009.059.017.118.017.177 0 .472-.38.843-.843.843H28.113c-.464 0-.843-.371-.843-.843 0-3.222 2.623-5.845 5.845-5.845h1.392zm-27.27 0c3.163 0 5.753 2.522 5.845 5.668.017.059.026.118.026.177 0 .472-.38.843-.844.843H.844C.38 54 0 53.629 0 53.157c0-3.222 2.623-5.845 5.854-5.845h1.383zm13.64 0c3.162 0 5.743 2.522 5.845 5.668.008.059.016.118.016.177 0 .472-.38.843-.843.843H14.483c-.473 0-.844-.371-.844-.843 0-3.222 2.623-5.845 5.845-5.845h1.392zM6.544 38.794c2.11 0 3.821 1.712 3.821 3.82 0 2.1-1.712 3.821-3.82 3.821-2.11 0-3.822-1.72-3.822-3.82 0-2.109 1.713-3.82 3.821-3.82zm13.631 0c2.109 0 3.821 1.712 3.821 3.82 0 2.1-1.712 3.821-3.82 3.821-2.11 0-3.822-1.72-3.822-3.82 0-2.109 1.712-3.82 3.821-3.82zm27.27 0c2.1 0 3.821 1.712 3.821 3.82 0 2.1-1.72 3.821-3.82 3.821-2.11 0-3.822-1.72-3.822-3.82 0-2.109 1.712-3.82 3.821-3.82zm-13.64 0c2.11 0 3.83 1.712 3.83 3.82 0 2.1-1.72 3.821-3.83 3.821-2.1 0-3.812-1.72-3.812-3.82 0-2.109 1.713-3.82 3.813-3.82zM49.85 0c2.277 0 4.133 1.855 4.133 4.132v28.582c0 2.277-1.856 4.132-4.133 4.132H4.14C1.856 36.846 0 34.991 0 32.714V4.132C0 1.855 1.856 0 4.141 0zm-4.653 4.217H8.854v28.412h36.343V4.217zM23.483 23.538v2.378h17.881v1.687H23.483v2.37h-5.028v-2.37h-5.769v-1.687h5.77v-2.378h5.027zm-17.79-8.737H4.008v7.236h1.687V14.8zm44.317 0h-1.687v7.236h1.687V14.8zm-8.96 3.826v1.687H23.653v-1.687H41.05zM13.555 8.35l5.811 4.58c.203.16.32.404.32.666 0 .253-.117.497-.32.658l-5.811 4.588c-.152.118-.338.177-.523.177-.127 0-.253-.026-.371-.085-.287-.135-.473-.43-.473-.759V9.015c0-.328.186-.624.473-.759.295-.143.64-.11.894.093zM41.05 12.75v1.687H21.966V12.75H41.05zm0-5.876V8.56H21.966V6.874H41.05z"/>
</svg>
