<svg xmlns="http://www.w3.org/2000/svg" width="30" height="30" viewBox="0 0 30 30">
    <defs>
        <linearGradient id="prefix__a" x1="0%" x2="100%" y1="0%" y2="100%">
            <stop offset="0%" stop-color="#FFB48A"/>
            <stop offset="100%" stop-color="#EC6B69"/>
        </linearGradient>
    </defs>
    <path fill="url(#prefix__a)" fill-rule="evenodd" d="M26.484 123H3.516C1.577 123 0 124.577 0 126.516v22.968C0 151.423 1.577 153 3.516 153h22.968c1.939 0 3.516-1.577 3.516-3.516v-22.968c0-1.939-1.577-3.516-3.516-3.516zm1.172 26.484c0 .647-.525 1.172-1.172 1.172h-6.68v-9.55h3.621l.598-3.633h-4.218v-2.52c0-.995.763-1.758 1.758-1.758h2.402v-3.632h-2.402c-2.984 0-5.39 2.416-5.39 5.4v2.51h-3.517v3.632h3.517v9.551H3.516c-.647 0-1.172-.525-1.172-1.172v-22.968c0-.647.525-1.172 1.172-1.172h22.968c.647 0 1.172.525 1.172 1.172v22.968z" transform="translate(0 -123)"/>
</svg>
