<svg xmlns="http://www.w3.org/2000/svg" width="95" height="75" viewBox="0 0 95 75">
    <defs>
        <filter id="prefix__a" width="220%" height="340%" x="-60%" y="-120%" filterUnits="objectBoundingBox">
            <feGaussianBlur in="SourceGraphic" stdDeviation="10"/>
        </filter>
    </defs>
    <g fill="none" fill-rule="evenodd" transform="translate(22)">
        <rect width="50" height="25" x=".5" y="25" fill="#F03E3D" filter="url(#prefix__a)" opacity=".848" rx="12.5"/>
        <rect width="50" height="50" fill="#F03E3D" rx="19"/>
        <path fill="#FFF" fill-rule="nonzero" d="M26.388 15.382l.032.032c.335.329 3 2.84 7.501 3.402.633.085 1.119.675 1.076 1.307-.759 10.575-8.226 14.413-8.945 14.751l-.044.02c-.148.064-.338.106-.507.106-.168 0-.337-.021-.506-.105-.338-.148-8.209-3.899-8.99-14.751-.063-.653.443-1.243 1.098-1.328 4.45-.567 7.097-3.027 7.467-3.39l.045-.044c.211-.211.485-.359.78-.38.36-.02.74.106.993.38zm-.908 4.32c-1.17 0-2.148.906-2.23 2.072l-.007.161v1.454h-.274c-.47 0-.868.363-.922.82l-.006.107v3.309c0 .47.364.866.821.92l.107.007h5.044c.47 0 .867-.364.922-.82l.006-.107h.021v-3.309c0-.47-.364-.866-.821-.92l-.107-.007h-.317v-1.454c0-1.222-1.013-2.234-2.237-2.234zm1.499 5.246c.166.166.187.43.062.62l-.062.076-1.393 1.39c-.085.106-.211.148-.338.148-.101 0-.189-.027-.274-.092l-.063-.055-.887-.885c-.21-.19-.21-.506 0-.696.166-.166.43-.187.62-.062l.077.062.527.527 1.055-1.054c.19-.19.486-.19.676.021zM25.5 20.692c.697 0 1.267.569 1.267 1.264v1.454h-2.533v-1.454c0-.695.57-1.264 1.266-1.264z"/>
    </g>
</svg>
