<svg xmlns="http://www.w3.org/2000/svg" width="95" height="75" viewBox="0 0 95 75">
    <defs>
        <filter id="prefix__a" width="220%" height="340%" x="-60%" y="-120%" filterUnits="objectBoundingBox">
            <feGaussianBlur in="SourceGraphic" stdDeviation="10"/>
        </filter>
    </defs>
    <g fill="none" fill-rule="evenodd" transform="translate(22)">
        <rect width="50" height="25" x=".5" y="25" fill="#FAB005" filter="url(#prefix__a)" opacity=".848" rx="12.5"/>
        <rect width="50" height="50" fill="#FAB005" rx="19"/>
        <path fill="#FFF" d="M20.602 17.178c.827.773 1.635 1.565 2.45 2.35 1.191 1.146 2.38 2.293 3.571 3.438.326.312.687.573 1.106.748.57.239 1.098.17 1.55-.254.227-.214.43-.465.597-.73.393-.623.74-1.276 1.138-1.895.537-.837 1.625-.994 2.392-.373.633.512.781 1.423.342 2.172-.621 1.06-1.251 2.115-1.878 3.171-.308.52-.613 1.041-.93 1.556-.084.139-.084.25-.012.396.292.598.567 1.204.854 1.805.947 1.983.225 4.183-1.712 5.156-1.314.659-2.636 1.303-3.965 1.93-1.727.815-3.762.17-4.74-1.481-.06-.103-.112-.213-.167-.319 1.169-.594 1.521-1.211 1.365-2.406.677.08 1.286-.07 1.768-.583.485-.516.623-1.133.491-1.79.337-.046.675-.044.982-.143 1.362-.44 1.773-2.163.762-3.19-.636-.648-1.299-1.269-1.951-1.9l-5.192-5.017c-.228-.22-.461-.433-.68-.66-.525-.544-.534-1.384-.03-1.922.503-.536 1.337-.576 1.89-.06zM17.4 28.35c.364-.004.683.175.964.446l2.683 2.59c.184.176.372.348.552.528.574.573.6 1.43.066 1.986-.528.548-1.362.552-1.935.002-1.051-1.008-2.096-2.024-3.151-3.028-.408-.388-.667-.823-.551-1.415.13-.669.668-1.113 1.372-1.109zm1.746-2.985c.21.004.52.114.774.357 1.328 1.267 2.657 2.533 3.975 3.81.54.52.547 1.378.048 1.918-.517.56-1.35.6-1.908.07-1.162-1.1-2.312-2.213-3.468-3.321-.162-.156-.329-.305-.487-.464-.409-.41-.528-1.005-.313-1.535.204-.503.696-.834 1.38-.835zm3.091-2.03c.499.467.985.947 1.477 1.42.75.721 1.495 1.446 2.25 2.162.337.319.602.667.595 1.355-.013.384-.262.823-.78 1.062-.5.232-1.005.186-1.42-.188-.621-.559-1.212-1.152-1.815-1.73-.72-.693-1.442-1.384-2.16-2.08-.372-.36-.527-.802-.411-1.315.24-1.067 1.463-1.437 2.264-.686zm9.491-6.617c.19.266.135.584-.157.805-.502.381-1.007.757-1.518 1.126-.11.08-.248.124-.329.163-.274-.026-.444-.122-.54-.326-.103-.218-.064-.422.087-.601.058-.07.135-.124.208-.178.48-.359.96-.719 1.444-1.072.294-.214.62-.176.805.083zm-7.813-1.531c.406.55.802 1.107 1.195 1.667.061.088.084.204.104.254 0 .28-.137.491-.331.57-.204.085-.479.044-.612-.136-.425-.573-.845-1.152-1.246-1.743-.17-.25-.079-.572.157-.734.233-.16.554-.12.733.122zm5.344-.6c.298.1.46.404.334.718-.264.654-.554 1.297-.843 1.941-.087.196-.263.273-.47.275-.405-.002-.64-.373-.487-.786.085-.23.193-.451.291-.676.167-.385.327-.772.502-1.152.136-.294.402-.412.673-.32zm-2.938-.578c.24.043.408.19.441.444.062.468.109.938.16 1.407.024.214.045.429.063.605.008.397-.177.638-.484.667-.3.03-.556-.186-.595-.526-.074-.642-.14-1.286-.196-1.93-.011-.136.01-.294.071-.412.108-.208.309-.297.54-.255z"/>
    </g>
</svg>
