<svg xmlns="http://www.w3.org/2000/svg" width="95" height="75" viewBox="0 0 95 75">
    <defs>
        <filter id="prefix__a" width="220%" height="340%" x="-60%" y="-120%" filterUnits="objectBoundingBox">
            <feGaussianBlur in="SourceGraphic" stdDeviation="10"/>
        </filter>
    </defs>
    <g fill="none" fill-rule="evenodd" transform="translate(22)">
        <rect width="50" height="25" x=".5" y="25" fill="#4DADF7" filter="url(#prefix__a)" opacity=".848" rx="12.5"/>
        <rect width="50" height="50" fill="#4DADF7" rx="19"/>
        <path fill="#FFF" fill-rule="nonzero" d="M14.995 19.54c1.576.554 2.288 1.762 3.038 3.037l.125.212c.713 1.203 1.492 2.41 3.053 3.052 0 .03-.004.06-.004.091 0 1.44 1.191 2.61 2.655 2.61.187 0 .369-.019.545-.056l2.247 2.21c-.001 0-.002 0-.003.002l-.892.638V36h-7.207v-3.75c1.704-.187 3.034-1.61 3.034-3.335v-.373h-.758v.373c0 1.44-1.192 2.61-2.656 2.61h-2.688l-.37-4.005L14 27.155v-3.833c0-1.371.363-2.66.995-3.782zM25 34.136h-.759v.745H25v-.745zm0-1.492h-.759v.746H25v-.746zm1.163-5.415l2.04 2.007c-.286.354-.606.684-.956.988l-2.065-2.03c.407-.23.746-.564.98-.965zm-4.197-11.737c1.265 0 2.52.3 3.637.864l.33.543c-.105.21-.197.43-.274.656l-1.038.255v2.82l1.037.255c.078.227.17.447.275.657l-.549.9 2.028 1.994.916-.54c.214.104.437.194.668.27l.26 1.02h.63c-.132 1.241-.56 2.413-1.234 3.436l-2.192-2.154c.038-.173.057-.352.057-.536 0-1.44-1.191-2.61-2.655-2.61-1.16 0-2.146.736-2.507 1.758-1.314-.604-1.976-1.708-2.665-2.877-.767-1.302-1.56-2.643-3.289-3.307 1.437-2.054 3.843-3.404 6.565-3.404zm1.896 8.576c1.046 0 1.897.836 1.897 1.864s-.851 1.865-1.897 1.865-1.896-.837-1.896-1.865.85-1.864 1.896-1.864zm0 .746c-.627 0-1.138.501-1.138 1.118 0 .617.51 1.119 1.138 1.119.627 0 1.138-.502 1.138-1.119s-.51-1.118-1.138-1.118zm0 .745c.21 0 .38.167.38.373s-.17.373-.38.373-.38-.167-.38-.373.17-.373.38-.373zM31.532 14l.22.867.209.06c.326.092.635.217.92.372l.191.103.777-.458 1.191 1.17-.466.764.105.188c.157.28.284.585.379.904l.06.206.882.217v1.655l-.881.216-.06.206c-.095.32-.223.624-.38.904l-.105.188.466.764-1.19 1.17-.778-.458-.19.104c-.286.154-.595.279-.92.372l-.21.06-.22.867h-1.684l-.22-.867-.21-.06c-.325-.092-.635-.218-.92-.372l-.19-.103-.778.458-1.19-1.17.466-.765-.106-.187c-.157-.28-.284-.585-.378-.905l-.061-.206-.882-.216v-1.655l.882-.217.06-.206c.095-.32.222-.623.38-.904l.105-.188-.467-.764 1.191-1.17.777.458.191-.103c.285-.154.595-.28.92-.372l.21-.06.22-.867h1.683zm-.842 1.492c-2.092 0-3.793 1.672-3.793 3.728s1.701 3.73 3.793 3.73c2.091 0 3.793-1.674 3.793-3.73s-1.702-3.728-3.793-3.728zm0 .745c1.673 0 3.034 1.339 3.034 2.983 0 1.645-1.361 2.983-3.034 2.983-1.673 0-3.035-1.338-3.035-2.983 0-1.644 1.362-2.983 3.035-2.983zm0 .746c-1.255 0-2.276 1.003-2.276 2.237 0 1.234 1.02 2.238 2.276 2.238 1.255 0 2.276-1.004 2.276-2.238s-1.021-2.237-2.276-2.237zm0 .746c.838 0 1.517.668 1.517 1.491 0 .824-.68 1.492-1.517 1.492-.838 0-1.518-.668-1.518-1.492 0-.823.68-1.491 1.518-1.491zm-12.729-.295c-.346.228-.674.488-.975.771l.524.539c.27-.254.564-.486.873-.69zm6.407-.795c-1.933-.674-4.2-.48-6.007.55l.381.645c1.616-.922 3.646-1.094 5.373-.492z"/>
    </g>
</svg>
