<svg xmlns="http://www.w3.org/2000/svg" width="30" height="30" viewBox="0 0 30 30">
    <defs>
        <linearGradient id="prefix__a" x1="0%" x2="100%" y1="0%" y2="100%">
            <stop offset="0%" stop-color="#FFB48A"/>
            <stop offset="100%" stop-color="#EC6B69"/>
        </linearGradient>
    </defs>
    <path fill="url(#prefix__a)" fill-rule="evenodd" d="M9.375 206.785H5.274v-13.242h4.101v13.242zm.41-17.461c0-1.326-1.076-2.402-2.401-2.402-1.33 0-2.404 1.076-2.404 2.402s1.073 2.403 2.404 2.403c1.325 0 2.4-1.077 2.4-2.403zM24.727 199.5c0-3.555-.751-6.191-4.904-6.191-1.995 0-3.335.998-3.882 2.035h-.004v-1.801h-3.984v13.242h3.985v-6.575c0-1.722.438-3.39 2.572-3.39 2.105 0 2.174 1.97 2.174 3.5v6.465h4.043V199.5zM30 208.484v-22.968c0-1.939-1.577-3.516-3.516-3.516H3.516C1.577 182 0 183.577 0 185.516v22.968C0 210.423 1.577 212 3.516 212h22.968c1.939 0 3.516-1.577 3.516-3.516zm-3.516-24.14c.647 0 1.172.525 1.172 1.172v22.968c0 .647-.525 1.172-1.172 1.172H3.516c-.647 0-1.172-.525-1.172-1.172v-22.968c0-.647.525-1.172 1.172-1.172h22.968z" transform="translate(0 -182)"/>
</svg>
