<svg xmlns="http://www.w3.org/2000/svg" width="43" height="54" viewBox="0 0 43 54">
    <path fill="#F03E3D" fill-rule="evenodd" d="M10.994 7.46c1.974 1.815 3.906 3.677 5.854 5.52 2.844 2.69 5.684 5.383 8.53 8.07.778.734 1.641 1.346 2.64 1.757 1.362.561 2.624.4 3.703-.596.543-.502 1.029-1.093 1.428-1.716.939-1.462 1.769-2.994 2.718-4.448 1.282-1.964 3.882-2.334 5.715-.875 1.51 1.201 1.866 3.341.817 5.1-1.484 2.488-2.99 4.964-4.488 7.445-.736 1.22-1.465 2.444-2.219 3.653-.204.326-.202.584-.031.929.698 1.404 1.355 2.828 2.04 4.238 2.263 4.655.539 9.82-4.09 12.104-3.139 1.548-6.296 3.061-9.471 4.534-4.126 1.913-8.988.397-11.323-3.48-.145-.242-.268-.498-.4-.747 2.793-1.395 3.635-2.845 3.261-5.65 1.618.187 3.071-.162 4.224-1.368 1.158-1.212 1.488-2.66 1.173-4.203.805-.109 1.613-.104 2.346-.336 3.253-1.031 4.235-5.078 1.821-7.49-1.52-1.52-3.104-2.978-4.663-4.46L8.177 13.662l-1.092-1.026c-.18-.172-.36-.346-.534-.524C5.3 10.836 5.278 8.863 6.483 7.6c1.2-1.258 3.192-1.353 4.511-.14zm-7.65 26.234c.869-.01 1.631.41 2.303 1.047 2.135 2.029 4.273 4.054 6.41 6.078l.883.824c.146.138.292.276.436.417 1.37 1.347 1.435 3.36.156 4.665-1.26 1.287-3.252 1.294-4.62.004-2.512-2.367-5.008-4.752-7.53-7.109C.409 38.71-.21 37.687.068 36.298c.312-1.57 1.595-2.613 3.277-2.604zm4.172-7.01c.502.01 1.243.27 1.85.84 3.17 2.975 6.346 5.946 9.495 8.943 1.287 1.224 1.307 3.236.113 4.506-1.234 1.312-3.223 1.408-4.558.165-2.774-2.586-5.523-5.198-8.283-7.8-.387-.364-.787-.715-1.165-1.088-.976-.965-1.26-2.36-.746-3.605.486-1.181 1.662-1.958 3.294-1.96zM14.9 21.92c1.19 1.096 2.353 2.223 3.528 3.335 1.79 1.693 3.572 3.395 5.375 5.074.804.75 1.437 1.567 1.421 3.183-.032.9-.626 1.932-1.861 2.493-1.196.544-2.402.437-3.396-.442-1.483-1.311-2.895-2.704-4.334-4.063-1.722-1.625-3.445-3.248-5.16-4.88-.89-.846-1.26-1.884-.983-3.09.576-2.504 3.497-3.372 5.41-1.61zM37.572 6.383c.456.626.323 1.371-.374 1.891-1.2.894-2.407 1.777-3.626 2.644-.265.189-.592.29-.786.382-.655-.06-1.062-.285-1.292-.765-.245-.512-.151-.991.209-1.412.138-.162.323-.29.497-.417 1.148-.843 2.293-1.688 3.45-2.517.701-.503 1.48-.412 1.922.194zM18.907 2.789c.972 1.29 1.917 2.6 2.856 3.914.146.207.2.478.248.596 0 .66-.327 1.153-.79 1.34-.488.198-1.144.102-1.462-.32-1.016-1.346-2.02-2.704-2.977-4.093-.406-.588-.188-1.343.375-1.723.556-.375 1.323-.28 1.75.286zM31.673 1.38c.712.237 1.102.949.799 1.686-.632 1.536-1.324 3.046-2.013 4.557-.21.46-.629.642-1.125.646-.965-.004-1.528-.876-1.163-1.845.203-.54.463-1.06.696-1.588.4-.902.781-1.812 1.2-2.705.324-.689.961-.966 1.606-.751zM24.655.024c.575.102.975.447 1.055 1.042.148 1.099.259 2.202.383 3.303.056.504.106 1.007.149 1.42.02.933-.423 1.498-1.156 1.568-.717.068-1.329-.438-1.422-1.236-.176-1.509-.336-3.019-.467-4.532-.028-.318.023-.69.17-.966.257-.489.736-.697 1.288-.6z"/>
</svg>
