<svg xmlns="http://www.w3.org/2000/svg" width="150" height="39" viewBox="0 0 150 39">
    <defs>
        <linearGradient id="prefix__a" x1="44.849%" x2="44.727%" y1="93.486%" y2="50.166%">
            <stop offset="0%" stop-color="#E2A22B"/>
            <stop offset="58%" stop-color="#EDC57A"/>
            <stop offset="100%" stop-color="#F2D59F"/>
        </linearGradient>
    </defs>
    <g fill="none" fill-rule="evenodd">
        <text fill="#2F281E" font-weight="300" font-family="'Open Sans Regular', sans-serif" font-size="39.27" transform="translate(0 -5)">
            <tspan x="48" y="42">Scout</tspan>
        </text>
        <g fill-rule="nonzero">
            <path fill="#5E2A41" d="M41.205 18.382c0 1.503-.964 2.763-2.323 3.199-.15 1.374-1.327 2.447-2.738 2.447H28.59c.881 1.421 1.39 3.09 1.39 4.88 0 1.322-.276 2.603-.805 3.785h3.646c1.519 0 2.758 1.234 2.758 2.758 0 1.52-1.24 2.754-2.758 2.754H20.169c-9.214 0-16.712-7.498-16.712-16.712V10.397c0-1.406-1.14-2.572-2.54-2.603-.38-.01-.711-.244-.851-.597-.14-.342-.052-.741.218-1.006 1.104-1.078 2.561-1.67 4.106-1.67 3.438 0 6.746 1.033 9.557 2.998 2.359 1.643 4.23 3.842 5.47 6.398l3.821-3.821s-.02-.887.037-1.525c-1.41-1.28-2.23-3.116-2.23-5.03 0-.533.062-1.067.187-1.591.124-.503.622-.809 1.125-.69.389.094.778.223 1.136.384.362.155.7.342 1.026.56.244-.659.586-1.286 1.022-1.846.155-.197.383-.321.627-.353.244-.026.493.042.69.197.321.25.612.519.87.815 1.043 1.156 1.634 2.613 1.722 4.153 0 0 .005 0 .01.005 2.697 1.25 4.87 3.427 6.124 6.124.633 1.363.53 2.935-.285 4.2-.7 1.104-1.846 1.82-3.116 1.986.212.31.378.658.503 1.021h1.804v-.124c0-1.851 2.479-3.06 2.977-3.283.243-.108.518-.108.762 0 .503.223 2.976 1.432 2.976 3.283zm-2.764 1.363c.53-.233.897-.762.897-1.363 0-.296-.627-.918-1.488-1.385-.809.441-1.493 1.058-1.493 1.385 0 .046 0 .088.005.135.653.051 1.265.331 1.732.798.13.135.249.275.347.43zm-1.41 1.52c0-.493-.4-.887-.887-.887H31.94c-.477 0-.87-.353-.933-.824-.13-1.12-1.084-1.997-2.214-2.038h-.088c-.514 0-.934-.42-.934-.934 0-.513.42-.933.934-.933h2.914c.876 0 1.638-.42 2.11-1.151.467-.731.524-1.633.16-2.416-1.067-2.297-2.918-4.148-5.215-5.217-.633-.29-1.37-.31-2.018-.041-.238.093-.502.088-.741-.01-.233-.11-.415-.312-.498-.555-.223-.648-.57-1.23-1.032-1.732-.425-.456-.917-.83-1.472-1.094v.135c.01 1.509.746 2.981 1.95 3.894.305.228.44.622.336.99-.057.223-.093.451-.093.685v1.348c0 .249-.098.487-.275.663L16.11 19.87c-3.334 3.334-4.174 8.415-2.08 12.636.006.016.01.026.016.036 1.245 2.22 3.536 3.64 6.056 3.78l12.72.016c.492 0 .886-.4.886-.887 0-.492-.394-.892-.886-.892h-5.237c-.343 0-.664-.191-.825-.492-.16-.306-.14-.68.057-.965.85-1.239 1.297-2.685 1.297-4.194 0-4.091-3.335-7.42-7.43-7.42-.514 0-.934-.42-.934-.939 0-.518.42-.933.933-.933 2.473 0 4.719.97 6.383 2.54h9.08v-.005c.487 0 .886-.394.886-.886zM27.527 4.76c-.135-.866-.498-1.68-1.069-2.359-.181.384-.316.793-.394 1.213.301.374.56.783.773 1.214.228-.037.461-.063.69-.068zM14.792 18.553l3.22-3.23c-1.094-2.526-2.857-4.683-5.139-6.27C10.38 7.307 7.45 6.389 4.39 6.389c-.42 0-.83.063-1.213.187.311.192.607.425.871.695.809.824 1.26 1.918 1.276 3.08v11.143c0 5.641 3.168 10.562 7.819 13.072-.488-.71-.814-1.26-.83-1.307-2.395-4.926-1.405-10.827 2.479-14.705z" transform="translate(0 -5) translate(0 5)"/>
            <path fill="#E52343" d="M39.338 18.382c0 .601-.368 1.13-.897 1.363-.098-.155-.217-.295-.347-.43-.467-.467-1.079-.747-1.732-.798-.005-.047-.005-.089-.005-.135 0-.327.684-.944 1.493-1.385.861.467 1.488 1.09 1.488 1.385z" transform="translate(0 -5) translate(0 5)"/>
            <path fill="url(#prefix__a)" d="M36.144 20.378c.488 0 .887.394.887.887 0 .492-.4.886-.887.886v.006h-9.079c-1.664-1.572-3.91-2.546-6.383-2.546-.513 0-.933.42-.933.933 0 .524.42.944.933.944 4.096 0 7.43 3.323 7.43 7.42 0 1.509-.445 2.955-1.296 4.194-.197.286-.218.659-.057.965.16.3.482.492.825.492h5.237c.492 0 .886.4.886.892 0 .488-.394.887-.886.887l-12.72-.016c-2.52-.14-4.811-1.56-6.061-3.78 0-.01-.005-.02-.01-.036-2.095-4.22-1.255-9.302 2.079-12.641l8.721-8.717c.177-.176.275-.414.275-.663V9.137c0-.234.036-.462.093-.685.104-.373-.03-.762-.337-.995-1.203-.908-1.939-2.38-1.95-3.89v-.134c.556.264 1.048.632 1.473 1.094.462.503.81 1.084 1.032 1.732.083.243.265.44.498.55.239.103.503.108.741.015.649-.27 1.385-.249 2.018.041 2.297 1.069 4.148 2.92 5.216 5.217.363.783.306 1.68-.16 2.41-.473.737-1.235 1.157-2.111 1.157h-2.914c-.514 0-.934.415-.934.933 0 .514.42.934.934.934h.088c1.13.041 2.084.918 2.214 2.038.062.466.456.824.933.824h4.205zm-6.269-9.727c0-.519-.41-.934-.933-.934-.513 0-.933.415-.933.934 0 .513.42.933.933.933.524 0 .933-.42.933-.933zM17.69 32.034c.457-.243.623-.814.379-1.27-1.006-1.872-1.048-4.127-.11-6.036.23-.461.037-1.021-.43-1.25-.46-.227-1.016-.036-1.244.426-1.208 2.453-1.156 5.351.14 7.747.166.316.488.497.825.497.145 0 .3-.041.44-.114z" transform="translate(0 -5) translate(0 5)"/>
            <path fill="#5E2A41" d="M28.942 9.717c.524 0 .933.415.933.934 0 .513-.41.933-.933.933-.513 0-.933-.42-.933-.933 0-.519.42-.934.933-.934z" transform="translate(0 -5) translate(0 5)"/>
            <path fill="#E6B263" d="M26.458 2.401c.57.68.934 1.493 1.069 2.36-.229.004-.462.03-.69.067-.213-.43-.472-.84-.778-1.214.083-.42.218-.83.4-1.213z" transform="translate(0 -5) translate(0 5)"/>
            <path fill="#5E2A41" d="M18.069 30.764c.244.456.078 1.027-.379 1.27-.14.073-.295.114-.44.114-.337 0-.659-.181-.825-.497-1.296-2.396-1.348-5.294-.14-7.747.228-.462.783-.653 1.245-.425.466.228.658.788.43 1.25-.939 1.908-.897 4.168.109 6.035z" transform="translate(0 -5) translate(0 5)"/>
            <path fill="#FF7124" d="M18.012 15.322l-3.22 3.23c-3.884 3.88-4.874 9.78-2.479 14.706.016.047.342.596.83 1.307-4.651-2.51-7.82-7.43-7.82-13.072V10.35c-.015-1.162-.466-2.256-1.275-3.08-.264-.27-.56-.503-.871-.695.384-.124.793-.187 1.213-.187 3.06 0 5.99.918 8.483 2.666 2.282 1.586 4.045 3.743 5.139 6.268z" transform="translate(0 -5) translate(0 5)"/>
        </g>
    </g>
</svg>
