<svg xmlns="http://www.w3.org/2000/svg" width="30" height="23" viewBox="0 0 30 23">
    <defs>
        <linearGradient id="prefix__a" x1="0%" x2="100%" y1="20.611%" y2="79.389%">
            <stop offset="0%" stop-color="#FFB48A"/>
            <stop offset="100%" stop-color="#EC6B69"/>
        </linearGradient>
        <linearGradient id="prefix__b" x1="50%" x2="50%" y1="0%" y2="100%">
            <stop offset="0%" stop-color="#FEB289"/>
            <stop offset="100%" stop-color="#EC6B69"/>
        </linearGradient>
    </defs>
    <path fill="url(#prefix__a)" fill-rule="evenodd" stroke="url(#prefix__b)" d="M2.813 71.5c11.287 0 17.888.244 21.743.652.784.082 1.451.171 2.019.266l-25.436.077L15.006 84.78l13.1-12.029c.22.065.412.131.578.2.337.138.554.276.68.432.127.156.136.325.136.492h0v17.25c0 .656-.26 1.251-.682 1.682-.418.427-.994.693-1.63.693h0H2.812c-.637 0-1.213-.266-1.63-.693C.76 92.377.5 91.781.5 91.125h0v-17.25c0-.656.26-1.251.682-1.682.418-.427.994-.693 1.63-.693zm25.812 2.405l-13.908 11.82-13.342-11.82v17.22c0 .401.16.764.417 1.027.262.267.623.431 1.02.431h24.375c.398 0 .76-.164 1.02-.43.258-.264.418-.627.418-1.028v-17.22z" transform="translate(0 -71)"/>
</svg>
