<svg xmlns="http://www.w3.org/2000/svg" width="52" height="52" viewBox="0 0 52 52">
    <path fill="#4DADF7" fill-rule="evenodd" d="M25.968 0C40.338 0 52 11.599 52 25.968 52 40.338 40.337 52 25.968 52 11.598 52 0 40.337 0 25.968 0 11.598 11.599 0 25.968 0zM14.176 29.254l4.704-7.088c.515-.838 1.804-.709 2.126.193l3.93 9.344 4.834-17.27c.322-1.095 1.868-1.224 2.32-.128l5.927 14.949h7.088c1.676 0 1.676 3.093 0 3.093h-8.312c-.515 0-.966-.322-1.16-.773-1.482-3.738-2.9-7.41-4.381-11.083L26.483 37.5c-.322 1.16-1.868 1.225-2.32.194l-4.639-11.018-3.35 5.09c-.258.322-.645.58-1.032.58H6.895c-1.676 0-1.676-3.093 0-3.093h7.281z"/>
</svg>
