<svg xmlns="http://www.w3.org/2000/svg" width="52" height="52" viewBox="0 0 52 52">
    <path fill="#4BCBAD" d="M27.204 27.72l4.13.65c.224 3.008 2.49 5.464 5.47 5.93.331.05.665.077 1 .08 1.366-.001 2.696-.435 3.8-1.24.98-.693 1.75-1.64 2.23-2.74l4.61.73-3 18.77c-.104.654-.464 1.24-1 1.63-.421.306-.929.47-1.45.47-.136.01-.273.01-.41 0l-18.77-3 .74-4.66c3-.233 5.45-2.49 5.925-5.462.475-2.971-1.147-5.881-3.925-7.038l.65-4.12zm-24.17-3.86l4.61.73c.233 3 2.491 5.45 5.462 5.925 2.971.475 5.881-1.147 7.038-3.925l4.12.65-.86 5.44c-.063.394.033.797.268 1.12.234.323.588.539.982.6.918.14 1.74.645 2.28 1.4.544.754.763 1.694.609 2.611-.154.917-.669 1.734-1.429 2.269-.74.548-1.669.779-2.58.64-.394-.063-.797.033-1.12.268-.322.234-.538.588-.6.982l-.94 5.92-18.77-3c-.654-.104-1.24-.464-1.63-1-.391-.535-.55-1.206-.44-1.86l3-18.77zm27.98-20.37l18.77 3c.654.104 1.24.464 1.63 1 .391.535.55 1.206.44 1.86l-3 18.77-5.92-.94c-.377-.078-.77-.003-1.09.21-.328.237-.545.599-.6 1-.142.92-.646 1.745-1.4 2.29-1.145.83-2.677.888-3.883.149-1.205-.74-1.847-2.132-1.627-3.529.063-.394-.033-.797-.267-1.12-.235-.323-.589-.539-.983-.6l-5.43-.86.65-4.12c2.35-.178 4.418-1.612 5.408-3.75.99-2.138.746-4.644-.638-6.55-.71-.975-1.676-1.736-2.79-2.2l.73-4.61zM8.934 0c.118.019.235.045.35.08l18.77 3-.94 5.92c-.085.797.469 1.522 1.26 1.65.92.142 1.745.646 2.29 1.4.83 1.145.888 2.677.149 3.883-.74 1.205-2.132 1.847-3.529 1.627-.394-.063-.797.033-1.12.268-.322.234-.538.588-.6.982l-.86 5.43-5.43-.86c-.394-.063-.797.033-1.12.268-.322.234-.538.588-.6.982-.36 1.849-2.12 3.081-3.98 2.788-1.861-.294-3.156-2.008-2.93-3.878.063-.394-.033-.797-.267-1.12-.235-.323-.589-.539-.983-.6l-5.92-.94 3-18.77C6.67.9 7.71.009 8.934 0z"/>
</svg>
