<svg xmlns="http://www.w3.org/2000/svg" width="480" height="440" viewBox="0 0 480 440">
    <g fill="none" fill-rule="evenodd">
        <path fill="#FDE6D6" d="M449.742 262.264c-1.485 2.218-2.965 4.397-4.545 6.569-13.815 19.291-30.96 37.821-49.945 54.853-.86.79-1.76 1.59-2.655 2.38-2.705 2.385-5.495 4.774-8.285 7.071-4.81 4.104-9.765 8.075-14.805 11.882-2.655 2.092-5.395 4.146-8.1 6.15-31.405 23.099-64.975 43.306-98.055 58.53-10.255 4.775-20.515 9.038-30.64 12.72-52.835 19.458-102.015 24.018-135.945 4.727-10.805-6.108-20.03-14.643-27.365-25.893-1.17-1.803-2.34-3.602-3.51-5.397-10.84-16.865-21.195-33.805-30.285-50.837-2.16-3.975-4.18-7.903-6.16-11.882-32.985-65.894-45.545-132.583 1.21-198.184 18.18-25.517 48.02-45.39 83.835-59.452 10.22-4.054 20.88-7.572 31.955-10.626 5.445-1.59 10.93-2.97 16.555-4.222 7.07-1.673 14.265-3.137 21.555-4.397 5.585-1 11.16-1.878 16.785-2.636 2.34-.288 4.68-.581 7.02-.878 16.605-1.962 33.435-3.054 50.18-3.176 2.2-.046 4.405-.046 6.57-.046 10.125.046 20.155.419 30.055 1.176 2.655.167 5.31.377 7.965.665 50.535 4.565 96.885 18.032 128.385 40.378 6.885 4.895 13.055 10.162 18.405 15.898.995 1.046 1.94 2.092 2.835 3.175.315.335.59.67.9 1.009 6.525 7.61 11.745 15.48 15.665 23.512 20.025 40.541 8.32 85.261-19.58 126.931"/>
        <path fill="#D8D5DB" d="M171.329 406.824c-3.015.13-6.075.225-9.045.225-.315 0-.54.265-.54.585 0 .265.225.54.54.54 3.015 0 6.03-.095 9.09-.225.315 0 .54-.275.54-.585-.045-.27-.315-.54-.585-.54m-18.045.09c-3.06-.09-6.12-.27-9-.45-.405-.045-.585.18-.63.49 0 .32.225.59.54.635 2.925.18 5.985.36 9.045.45.315 0 .585-.225.585-.545 0-.31-.225-.58-.54-.58m36.045-1.395c-3.015.31-6.03.585-9 .81-.315 0-.54.265-.54.585.045.315.27.54.585.54h.045c2.97-.225 5.985-.5 9-.81.315-.05.54-.315.54-.635-.045-.31-.315-.54-.63-.49m-54.045.045c-2.97-.32-5.985-.765-8.91-1.265-.315-.04-.585.14-.675.455-.045.31.18.585.495.63 2.925.54 5.94.945 8.955 1.305h.09c.27 0 .495-.18.54-.5.045-.31-.18-.585-.495-.625m71.955-2.43c-3.06.445-6.03.9-8.955 1.305-.315.04-.54.315-.495.625.045.275.315.5.585.5h.045c2.925-.405 5.94-.86 9-1.35.27-.045.495-.315.45-.635-.045-.31-.315-.49-.63-.445m-89.685-.63c-2.97-.675-5.895-1.44-8.73-2.25-.315-.09-.63.045-.72.36-.09.31.09.63.405.715 2.745.765 5.535 1.535 8.37 2.21.135.04.27.04.405.09h.135c.09 0 .18-.05.27-.09l.045-.045c.135-.045.18-.18.225-.32.045-.265-.135-.58-.405-.67m107.415-2.745c-2.925.625-5.94 1.26-8.775 1.8h-.09c-.315.045-.495.31-.45.63.045.265.315.445.585.445h.09c2.025-.36 4.095-.765 6.165-1.21.9-.18 1.8-.36 2.7-.585.315-.045.495-.36.45-.675-.09-.27-.36-.495-.675-.405m17.55-4.28c-2.835.765-5.76 1.53-8.73 2.25-.315.095-.495.365-.405.68.045.265.27.445.54.445.045 0 .09 0 .135-.04 2.97-.72 5.94-1.485 8.775-2.21.27-.085.45-.4.405-.72-.09-.265-.405-.445-.72-.405m-142.245 1.89c-.99-.36-1.935-.72-2.925-1.125-1.845-.72-3.6-1.525-5.355-2.335-.27-.135-.63 0-.765.265-.135.275 0 .635.27.765 1.89.905 3.87 1.71 5.85 2.525.81.36 1.665.67 2.52.99h.225c.225 0 .45-.14.54-.36.09-.27-.045-.585-.36-.725m159.57-6.93c-.585.18-1.17.405-1.8.585-2.205.68-4.5 1.4-6.795 2.07-.315.095-.495.36-.405.68.09.27.315.4.54.4h.18c2.25-.67 4.545-1.345 6.705-2.025.675-.225 1.305-.405 1.935-.625.27-.09.45-.405.36-.725-.09-.265-.405-.445-.72-.36m-175.86-.67l-.315-.225c-2.52-1.44-4.95-2.97-7.29-4.59-.225-.18-.585-.09-.765.18-.18.22-.09.585.135.765 2.34 1.57 4.815 3.15 7.335 4.635l.36.225c.09.04.18.04.27.04.225 0 .405-.085.495-.265.18-.275.045-.635-.225-.765m192.96-5.135c-2.835 1.04-5.715 2.03-8.505 3.015-.315.095-.45.41-.36.68.09.265.27.4.54.4.045 0 .09 0 .18-.04 2.835-.945 5.67-1.985 8.505-3.015.315-.095.45-.405.36-.72-.135-.32-.495-.45-.72-.32m17.55-6.295c-.135-.315-.45-.455-.72-.315-2.745 1.125-5.58 2.29-8.415 3.375-.27.135-.405.445-.315.765.09.22.315.36.54.36.045 0 .135-.045.225-.045 2.835-1.125 5.67-2.295 8.37-3.42.315-.135.45-.455.315-.72m-225.315 1.255c-1.035-.805-2.07-1.66-3.015-2.475-1.305-1.125-2.52-2.29-3.735-3.415-.225-.225-.585-.225-.81 0-.225.22-.225.585 0 .805 1.44 1.355 2.925 2.705 4.5 4.01.765.67 1.53 1.35 2.34 1.975.09.095.225.14.36.14.18 0 .315-.09.45-.225.18-.225.135-.585-.09-.815m241.875-8.64c-.135-.31-.495-.405-.765-.265-2.61 1.21-5.265 2.475-8.235 3.78-.27.09-.405.45-.27.72.09.225.315.36.495.36.09 0 .18-.045.225-.095 2.97-1.305 5.67-2.515 8.28-3.78.27-.13.405-.445.27-.72m-254.835-3.78c-1.98-2.25-3.87-4.63-5.58-7.015-.18-.275-.54-.315-.81-.135-.225.18-.27.54-.09.765 1.575 2.25 3.33 4.455 5.13 6.565.18.185.315.405.495.585.09.095.27.18.405.18s.27-.04.405-.13c.18-.18.225-.41.135-.635 0-.085-.045-.135-.09-.18m270.99-4.36c-.135-.27-.495-.36-.765-.225-2.565 1.39-5.31 2.79-8.01 4.14-.27.135-.36.405-.27.625-.045.045 0 .095 0 .14.09.18.315.315.495.315.09 0 .18-.05.27-.09.225-.14.495-.225.72-.365 2.52-1.21 4.95-2.515 7.335-3.775.27-.14.36-.5.225-.765m15.75-8.865c-.135-.275-.495-.36-.765-.23-.495.275-.945.59-1.44.86-2.07 1.26-4.185 2.47-6.39 3.69-.27.13-.36.49-.18.765.09.18.27.265.495.265.09 0 .18 0 .27-.04 2.655-1.53 5.31-3.06 7.83-4.545.045-.045.09-.095.135-.135.18-.18.18-.405.045-.63m-297.18-1.355c-1.53-2.56-2.925-5.265-4.14-7.96-.135-.27-.495-.405-.765-.27-.27.13-.405.45-.27.765 1.26 2.7 2.655 5.445 4.185 8.055.09.18.27.27.495.27.09 0 .18-.045.27-.09.27-.135.36-.495.225-.77m312.525-8.185c0-.045-.045-.095-.045-.135-.18-.27-.54-.32-.765-.18-.18.09-.315.22-.495.315-1.26.85-2.61 1.755-3.915 2.56-1.035.72-2.115 1.4-3.15 2.075-.27.13-.36.495-.18.765.09.18.27.27.45.27.09 0 .225-.045.315-.09 1.575-.995 3.105-1.98 4.635-3.02.99-.625 1.98-1.255 2.97-1.93.18-.14.27-.405.18-.63m14.67-10.62c-.18-.27-.54-.32-.765-.14-2.385 1.805-4.86 3.605-7.29 5.36-.27.18-.315.495-.135.765.135.135.27.22.45.22.135 0 .225 0 .36-.085 2.43-1.76 4.905-3.555 7.29-5.36.27-.18.315-.54.09-.76m-337.365-6.075c-.09-.315-.405-.495-.72-.405-.27.09-.45.405-.405.67.81 2.975 1.71 5.9 2.7 8.69.09.27.27.405.54.405.045 0 .09 0 .18-.05.27-.085.45-.405.315-.715-.99-2.79-1.845-5.675-2.61-8.595m351.45-5.36c-.225-.22-.585-.22-.81-.04-2.205 1.89-4.5 3.82-6.93 5.805-.225.18-.27.54-.09.765.135.135.27.22.45.22.135 0 .225-.04.36-.135 2.43-1.93 4.77-3.91 6.93-5.8.27-.23.27-.54.09-.815M32.414 309.979c0-.265-.27-.54-.585-.49-.315.045-.54.31-.495.63.315 3.055.72 6.07 1.215 9 .045.265.315.445.585.445h.09c.315-.04.495-.31.45-.625-.495-2.93-.945-5.895-1.26-8.96m367.875.095c-.225-.23-.585-.23-.81 0-2.07 2.07-4.275 4.185-6.48 6.255-.225.18-.27.54-.045.765.09.135.27.18.405.18s.27-.045.405-.14c2.205-2.07 4.41-4.18 6.525-6.295.225-.225.225-.585 0-.765m12.195-13.37c-.225-.225-.585-.18-.81.05-1.845 2.25-3.87 4.545-5.94 6.795-.225.225-.18.585.045.805.09.095.225.14.36.14.18 0 .315-.095.405-.18 2.115-2.295 4.14-4.595 6.03-6.845.18-.225.135-.585-.09-.765m-380.745-.67c0-1.305 0-2.655.045-4.01 0-.31-.225-.585-.54-.585-.315 0-.585.23-.585.54-.045 1.35-.045 2.705-.045 4.055 0 1.71.045 3.375.09 5.04 0 .27.27.54.54.54h.045c.315-.05.54-.27.54-.59-.045-1.66-.09-3.325-.09-4.99m391.635-13.725c-.27-.18-.585-.135-.765.13-1.665 2.43-3.465 4.905-5.265 7.29-.225.275-.135.635.09.815.09.045.225.09.36.09.135 0 .315-.045.45-.225 1.8-2.385 3.6-4.86 5.265-7.335.18-.275.135-.635-.135-.765m-390.6-8.87c-.36-.085-.585.14-.63.455-.405 3.06-.72 6.075-.99 9.045 0 .315.225.585.54.585h.045c.27 0 .54-.225.54-.5.27-2.965.585-5.98.99-8.95.045-.315-.18-.635-.495-.635m399.825-6.7c-.27-.09-.585 0-.765.27-1.305 2.565-2.79 5.22-4.365 7.83-.18.265-.09.63.18.81.09.04.18.04.27.04.225 0 .405-.085.495-.265 1.62-2.655 3.105-5.31 4.455-7.92.135-.275 0-.635-.27-.765m-396.585-11.12c-.315-.04-.585.14-.675.455-.63 2.97-1.26 5.935-1.8 8.865-.045.315.18.585.45.675h.135c.27 0 .495-.18.54-.45.54-2.925 1.125-5.895 1.8-8.865.045-.32-.135-.585-.45-.68m403.695-5.485c-.315-.09-.63.04-.72.36-.945 2.745-2.07 5.58-3.285 8.37-.135.31 0 .63.315.765.045 0 .135.045.225.045.18 0 .405-.135.495-.36 1.215-2.835 2.34-5.67 3.285-8.46.135-.275-.045-.585-.315-.72m-399.015-11.97c-.27-.09-.585.09-.675.4-.9 2.885-1.755 5.805-2.52 8.69-.045.31.135.63.405.67.045.045.09.045.18.045.225 0 .45-.175.54-.405.72-2.875 1.575-5.805 2.475-8.68.09-.32-.09-.63-.405-.72m403.785-5.445c-.315-.09-.585.135-.675.4-.63 2.885-1.395 5.805-2.205 8.78-.045.27.09.58.405.675.045 0 .09.045.135.045.27 0 .495-.18.54-.45.81-2.925 1.575-5.895 2.25-8.775.045-.315-.135-.635-.45-.675m-397.89-11.655c-.315-.095-.63.04-.72.315-1.08 2.835-2.115 5.715-3.06 8.545-.135.275.045.585.315.725h.18c.27 0 .45-.14.54-.36.99-2.835 2.025-5.715 3.06-8.505.09-.275-.045-.635-.315-.72m401.13-6.165c-.27-.045-.585.18-.63.495-.405 2.97-.9 5.935-1.44 8.905-.045.32.135.585.45.68h.09c.27 0 .495-.18.585-.455.54-3.015 1.035-6.03 1.44-8.95 0-.315-.18-.635-.495-.675m-394.29-10.575c-.27-.135-.585 0-.72.31-1.215 2.75-2.43 5.54-3.555 8.33-.09.265.045.63.315.72.09.045.135.045.225.045.225 0 .405-.135.495-.36 1.125-2.75 2.34-5.54 3.555-8.28.135-.315 0-.635-.315-.765m395.865-7.425c-.27.04-.54.22-.585.54-.135 3.015-.315 6.03-.585 9-.045.315.18.585.495.625h.045c.27 0 .54-.22.54-.54.315-2.965.495-5.98.63-9.045.045-.265-.225-.54-.54-.58m-388.08-8.91c-.27-.135-.63-.05-.765.225-1.35 2.7-2.7 5.445-3.96 8.14-.135.32 0 .635.27.765.09.05.135.05.225.05.225 0 .405-.09.495-.315 1.305-2.705 2.655-5.445 4.005-8.1.135-.315 0-.635-.27-.765m388.62-8.6c0-.31-.27-.535-.585-.535-.315 0-.54.27-.54.585.135 2.97.225 5.985.225 9 0 .315.27.585.54.585.315 0 .585-.27.585-.585 0-3.015-.09-6.075-.225-9.05m-380.07-7.375c-.27-.135-.63-.045-.765.225-1.53 2.65-2.97 5.355-4.365 7.965-.135.27-.045.585.225.72.09.045.18.09.27.09.18 0 .405-.09.495-.315 1.395-2.565 2.835-5.265 4.365-7.92.135-.27.045-.585-.225-.765m378.36-10.71c-.045-.315-.315-.54-.63-.45-.315.045-.495.315-.45.625.405 2.975.765 5.99 1.035 8.96.045.315.27.495.585.495h.045c.315 0 .54-.27.495-.585-.27-3.015-.63-6.03-1.08-9.045m-369.135-4.815c-.225-.18-.585-.09-.765.18-1.575 2.56-3.15 5.13-4.68 7.74-.18.27-.09.585.18.765.09.045.18.09.27.09.225 0 .405-.09.495-.27 1.53-2.61 3.105-5.175 4.68-7.74.18-.275.09-.585-.18-.765m367.605-4.455h-.045c-.495-2.835-1.17-5.67-1.845-8.555-.045-.31-.36-.49-.675-.4-.27.045-.495.36-.405.675.675 2.745 1.26 5.49 1.8 8.235.045.18.09.4.135.585.045.27.27.45.54.45h.09c.315-.09.495-.36.45-.675 0-.09-.045-.225-.045-.315m-357.48-10.98c-.225-.18-.585-.135-.765.135l-.225.315c-1.665 2.475-3.375 4.995-4.995 7.51-.18.275-.135.635.135.815.09.045.225.09.315.09.18 0 .36-.09.45-.27 1.665-2.52 3.33-5.045 5.04-7.515l.225-.315c.135-.225.09-.59-.18-.765m352.62-8.37c-.675-2.25-1.395-4.455-2.115-6.615-.09-.315-.45-.45-.72-.36-.315.135-.45.45-.36.72.855 2.475 1.665 4.995 2.43 7.56.09.36.225.675.315 1.035.09.27.315.405.54.405h.18c.27-.09.45-.405.36-.72-.18-.675-.405-1.355-.63-2.025m-342.225-6.435c-.27-.18-.63-.135-.81.135-1.71 2.43-3.465 4.86-5.22 7.38-.18.225-.09.585.135.765.135.09.225.09.36.09.135 0 .315-.045.45-.23 1.71-2.47 3.465-4.945 5.22-7.375.18-.27.09-.585-.135-.765m10.71-14.58c-.27-.18-.585-.135-.81.09-1.8 2.38-3.6 4.815-5.4 7.29-.18.225-.09.585.135.765.09.09.225.135.315.135.18 0 .36-.095.495-.27 1.755-2.43 3.555-4.86 5.355-7.245.18-.225.135-.585-.09-.765m326.205 5.895c-.27-.675-.585-1.395-.9-2.115-.135-.36-.315-.765-.495-1.17-.675-1.665-1.44-3.375-2.205-5.04-.135-.27-.45-.405-.765-.27-.27.135-.405.45-.27.72.54 1.165 1.08 2.34 1.575 3.51.36.765.675 1.53.945 2.25.36.765.675 1.485.945 2.25l.135.27c.09.225.27.36.495.36.09 0 .135 0 .225-.045.225-.09.405-.315.36-.585 0-.045 0-.095-.045-.135m-315.09-20.21c-.27-.175-.585-.13-.81.095-1.845 2.25-3.6 4.59-5.4 6.885-.045.09-.135.135-.18.225-.225.27-.18.63.09.81.09.09.225.135.315.135.135 0 .27-.045.36-.135l.09-.09c1.89-2.43 3.735-4.77 5.625-7.11.18-.225.135-.585-.09-.815m307.53 3.74c-.585-1.08-1.125-2.115-1.71-3.15-.855-1.62-1.755-3.195-2.7-4.77-.135-.27-.495-.36-.765-.225-.27.18-.36.495-.18.765.945 1.62 1.845 3.285 2.79 4.995.495.945 1.035 1.93 1.53 2.925.135.18.315.27.495.27.09 0 .18 0 .27-.05.27-.13.405-.49.27-.76m-295.965-17.64c-.27-.18-.585-.135-.81.09-1.935 2.25-3.915 4.545-5.85 6.885-.18.27-.18.63.09.81.09.09.225.135.36.135.135 0 .315-.09.405-.225 1.935-2.34 3.915-4.635 5.85-6.885.18-.225.18-.585-.045-.81m286.785 1.98c-1.62-2.52-3.33-4.995-5.085-7.47-.18-.27-.54-.315-.81-.135-.225.18-.315.54-.135.81 1.755 2.43 3.51 4.905 5.13 7.425.09.135.27.225.45.225.09 0 .225 0 .315-.09.27-.135.315-.495.135-.765M144.959 69.999c-.225-.18-.585-.18-.765.045-2.07 2.16-4.095 4.41-6.12 6.66-.225.27-.18.585.045.81.09.09.225.135.36.135.135 0 .315-.045.405-.18 2.025-2.25 4.095-4.5 6.12-6.66.225-.225.18-.585-.045-.81m264.15.765c-1.89-2.385-3.87-4.725-5.85-6.975-.18-.225-.54-.225-.765-.045-.27.225-.27.585-.045.81 1.935 2.205 3.915 4.545 5.76 6.885.135.135.27.225.45.225.135 0 .225-.045.36-.135.225-.18.27-.54.09-.765m-251.46-13.635c-.225-.225-.54-.225-.765 0-2.115 2.025-4.275 4.185-6.435 6.385-.225.23-.225.59 0 .77.09.135.225.18.405.18.135 0 .27-.045.405-.18 2.115-2.16 4.275-4.32 6.39-6.345.225-.225.225-.585 0-.81m239.49.045c-2.115-2.16-4.275-4.32-6.48-6.345-.225-.225-.585-.225-.81 0-.18.225-.18.585.045.81 2.205 2.025 4.365 4.185 6.435 6.3.09.09.225.18.405.18.135 0 .27-.045.36-.18.225-.225.225-.585.045-.765m-226.08-12.196c-.225-.224-.585-.27-.81-.044-1.62 1.395-3.24 2.79-4.815 4.23-.405.315-.765.675-1.125 1.035-.27.225-.585.45-.855.72-.225.22-.225.585-.045.81.135.09.27.18.45.18.135 0 .27-.045.36-.135l1.485-1.35 1.62-1.485c1.215-1.085 2.43-2.115 3.645-3.15.225-.226.27-.586.09-.81m212.85-.18c-2.295-1.98-4.68-3.87-7.02-5.716-.27-.18-.63-.135-.81.09-.18.27-.135.63.09.806 2.385 1.804 4.725 3.74 7.02 5.675.09.09.225.134.36.134.135 0 .315-.09.405-.224.225-.225.18-.586-.045-.766m-198.72-11.07c-.18-.225-.54-.315-.765-.09-2.385 1.71-4.77 3.6-7.2 5.49-.225.225-.27.54-.09.81.135.135.27.225.45.225.135 0 .225-.045.36-.135 2.385-1.935 4.77-3.78 7.155-5.49.225-.184.27-.54.09-.81m184.365 0c-2.475-1.755-4.995-3.42-7.56-5.04-.225-.135-.585-.09-.765.18-.18.27-.09.63.18.765 2.52 1.62 5.04 3.285 7.515 4.995.09.09.225.09.315.09.18 0 .36-.045.45-.225.18-.27.135-.585-.135-.765m-169.335-10.08c-.18-.225-.54-.315-.765-.18-2.565 1.575-5.13 3.195-7.65 4.905-.27.18-.315.54-.135.81.09.135.27.225.45.225.135 0 .225-.045.315-.09 2.52-1.714 5.04-3.33 7.605-4.86.27-.18.315-.54.18-.81m154.035.405c-2.655-1.485-5.355-2.97-8.01-4.324-.27-.13-.63 0-.765.274-.135.27 0 .585.27.761 2.655 1.354 5.31 2.75 7.92 4.234.09.09.18.09.27.09.225 0 .405-.09.495-.27.18-.27.09-.63-.18-.765m-138.15-8.955c-.135-.315-.45-.405-.765-.27-2.655 1.26-5.4 2.651-8.055 4.095-.27.18-.36.495-.225.765.09.225.315.315.495.315.09 0 .18-.045.27-.09 2.655-1.44 5.355-2.79 8.01-4.095.27-.135.405-.45.27-.72m121.95.72c-2.745-1.215-5.535-2.43-8.325-3.555-.27-.09-.63.045-.72.315-.135.311 0 .63.315.765 2.79 1.08 5.58 2.295 8.28 3.51.09.045.135.045.225.045.225 0 .45-.135.54-.315.135-.319 0-.63-.315-.765m-105.885-7.83c-2.835.945-5.715 2.025-8.505 3.15-.315.135-.45.45-.315.716.09.23.315.364.495.364.09 0 .18 0 .225-.045 2.79-1.125 5.625-2.205 8.46-3.15.27-.09.45-.405.315-.675-.09-.315-.405-.45-.675-.36m89.055 1.125c-2.88-.99-5.76-1.89-8.64-2.7-.315-.09-.63.09-.72.405-.09.27.09.585.405.675 2.835.81 5.76 1.71 8.595 2.7h.18c.225 0 .45-.135.54-.36.09-.319-.045-.63-.36-.72m-71.55-5.805c-2.97.581-5.94 1.26-8.82 2.07-.315.045-.495.36-.405.675.045.225.27.405.54.405h.135c2.88-.765 5.85-1.444 8.775-2.025.27-.045.495-.36.45-.675-.09-.27-.36-.495-.675-.45m54.09.9c-2.97-.63-5.985-1.215-8.91-1.665-.315-.045-.63.18-.675.45-.045.315.18.63.495.675 2.925.45 5.895.99 8.865 1.62.045.045.09.045.09.045.27 0 .495-.18.585-.45.045-.315-.135-.585-.45-.675m-36.045-3.105h-.045c-3.015.18-6.075.45-9.045.81-.315.045-.54.315-.495.63.045.27.27.495.585.495h.045c2.97-.36 5.985-.63 9-.81.27 0 .54-.27.495-.589 0-.266-.27-.536-.54-.536m18.09.36c-2.97-.27-6.03-.45-9.045-.495-.315 0-.585.225-.585.54 0 .315.225.585.54.585 3.015.045 6.03.225 9 .495h.045c.315 0 .54-.225.585-.54 0-.319-.225-.585-.54-.585"/>
        <g>
            <path fill="#DABFAD" d="M329.258 345.243c0 4.533-73.708 8.208-164.63 8.208C73.709 353.451 0 349.776 0 345.243s73.707-8.208 164.629-8.208c90.921 0 164.629 3.675 164.629 8.208" transform="matrix(-1 0 0 1 460 41.967)"/>
            <path fill="#775298" d="M287.92 59.98h-51.208c-1.414 0-2.56-1.146-2.56-2.56V24.434c0-1.414 1.146-2.56 2.56-2.56h51.208c1.413 0 2.56 1.146 2.56 2.56V57.42c0 1.415-1.147 2.56-2.56 2.56" transform="matrix(-1 0 0 1 460 41.967)"/>
            <path fill="#FFF" d="M236.712 56.944L287.92 56.944 287.92 24.91 236.712 24.91z" transform="matrix(-1 0 0 1 460 41.967)"/>
            <path fill="#775298" d="M257.069 34.28L257.069 49.971 272.344 42.125 257.069 34.28" transform="matrix(-1 0 0 1 460 41.967)"/>
            <g>
                <path fill="#FF7B5B" d="M59.454 42.134h-36.75l11.554 16.088-22.399-16.088H2.83c-1.563 0-2.83-1.267-2.83-2.83V2.83C0 1.267 1.267 0 2.83 0h56.624c1.564 0 2.83 1.267 2.83 2.83v36.474c0 1.563-1.266 2.83-2.83 2.83" transform="matrix(-1 0 0 1 460 41.967) translate(77.312)"/>
                <path fill="#FFF" d="M16.574 30.821L23.453 30.821 23.453 24.365 16.574 24.365zM27.379 30.821L34.258 30.821 34.258 24.365 27.379 24.365zM38.187 30.821L45.066 30.821 45.066 24.365 38.187 24.365z" transform="matrix(-1 0 0 1 460 41.967) translate(77.312)"/>
            </g>
            <g>
                <path fill="#FF7B5B" d="M2.83 42.134h36.75L28.028 58.222l22.399-16.088h9.028c1.564 0 2.83-1.267 2.83-2.83V2.83c0-1.563-1.266-2.83-2.83-2.83H2.83C1.267 0 0 1.267 0 2.83v36.474c0 1.563 1.267 2.83 2.83 2.83" transform="matrix(-1 0 0 1 460 41.967) translate(357.312 200)"/>
                <path fill="#FFF" d="M16.574 30.821L23.453 30.821 23.453 24.365 16.574 24.365zM27.379 30.821L34.258 30.821 34.258 24.365 27.379 24.365zM38.187 30.821L45.066 30.821 45.066 24.365 38.187 24.365z" transform="matrix(-1 0 0 1 460 41.967) translate(357.312 200)"/>
            </g>
            <path fill="#49B48D" d="M264.493 198.95L264.493 205.757 187.326 205.757 187.326 223.523 264.493 223.523 264.493 230.33 99.942 230.33 99.942 198.95 264.493 198.95" transform="matrix(-1 0 0 1 460 41.967)"/>
            <path fill="#7668A0" d="M80.034 235.05v-.016h-4.992v-4.704H248.05v21.69H75.042v-4.706h4.992v-.005c1.644-.159 2.955-2.837 2.955-6.13 0-3.293-1.31-5.971-2.955-6.13" transform="matrix(-1 0 0 1 460 41.967)"/>
            <path fill="#79C3AE" d="M99.942 230.33L174.525 230.33 174.525 198.95 99.942 198.95z" transform="matrix(-1 0 0 1 460 41.967)"/>
            <path fill="#534B8D" d="M152.56 252.019L248.05 252.019 248.05 230.33 152.56 230.33z" transform="matrix(-1 0 0 1 460 41.967)"/>
            <path fill="#F5ECE1" d="M264.493 205.757v.022c-2.378.227-4.272 4.101-4.272 8.861 0 4.758 1.894 8.632 4.272 8.86v.023H181.57v-17.766h82.922" transform="matrix(-1 0 0 1 460 41.967)"/>
            <path fill="#F9CE5C" d="M61.904 339.507L61.904 334.744 174.746 334.744 174.746 322.31 61.904 322.31 61.904 317.546 302.531 317.546 302.531 339.507 61.904 339.507" transform="matrix(-1 0 0 1 460 41.967)"/>
            <path fill="#F4B938" d="M193.467 339.507L302.531 339.507 302.531 317.546 193.467 317.546z" transform="matrix(-1 0 0 1 460 41.967)"/>
            <path fill="#F5ECE1" d="M61.904 334.744v-.016c3.478-.16 6.248-2.87 6.248-6.202 0-3.33-2.77-6.041-6.248-6.201v-.015h121.258v12.434H61.904" transform="matrix(-1 0 0 1 460 41.967)"/>
            <path fill="#79C3AE" d="M289.642 252.019L289.642 258.826 206.941 258.826 206.941 276.592 289.642 276.592 289.642 283.398 113.288 283.398 113.288 252.019 289.642 252.019" transform="matrix(-1 0 0 1 460 41.967)"/>
            <path fill="#8ECFD0" d="M91.72 283.398L193.219 283.398 193.219 252.019 91.72 252.019z" transform="matrix(-1 0 0 1 460 41.967)"/>
            <path fill="#F5ECE1" d="M289.642 258.826v.02c-2.548.23-4.578 4.103-4.578 8.863 0 4.758 2.03 8.632 4.578 8.86v.023H103.23v-17.766h186.412" transform="matrix(-1 0 0 1 460 41.967)"/>
            <path fill="#D6C8BA" d="M192.965 258.826h96.677v.02c-2.548.23-4.578 4.103-4.578 8.863 0 4.758 2.03 8.632 4.578 8.86v.023h-96.677v-17.766" transform="matrix(-1 0 0 1 460 41.967)"/>
            <path fill="#5B649F" d="M72.062 317.546L72.062 310.139 165.416 310.139 165.416 290.805 72.062 290.805 72.062 283.398 259.48 283.398 259.48 317.546 72.062 317.546" transform="matrix(-1 0 0 1 460 41.967)"/>
            <path fill="#2F4187" d="M179.198 317.546L281.142 317.546 281.142 283.398 179.198 283.398z" transform="matrix(-1 0 0 1 460 41.967)"/>
            <path fill="#F5ECE1" d="M72.062 310.14v-.025c2.562-.25 4.6-4.464 4.6-9.643 0-5.18-2.038-9.394-4.6-9.643v-.024h197.519v19.334H72.062" transform="matrix(-1 0 0 1 460 41.967)"/>
            <path fill="#D6C8BA" d="M179.454 310.14H72.062v-.025c2.562-.25 4.6-4.464 4.6-9.643 0-5.18-2.038-9.394-4.6-9.643v-.024h107.392v19.334" transform="matrix(-1 0 0 1 460 41.967)"/>
            <path fill="#F5ECE1" d="M80.034 247.325L133.416 247.325 133.416 247.314 80.034 247.314z" transform="matrix(-1 0 0 1 460 41.967)"/>
            <path fill="#F5ECE1" d="M82.989 241.18c0-3.294-1.31-5.972-2.955-6.13v-.016h66.507v12.28H80.034v-.005c1.644-.159 2.955-2.837 2.955-6.13" transform="matrix(-1 0 0 1 460 41.967)"/>
            <path fill="#79C3AE" d="M172.798 101.115s9.533 34.38 14.221 40.005c4.688 5.626 20.002 13.907 20.002 13.907l-4.063 7.189s-27.83-14.184-32.659-25.784c-2.813-6.757-4.683-12.592-5.625-17.814-.768-4.256-3.912-14.84-2.344-19.064 1.022-2.754 8.281-4.22 10.468 1.561" transform="matrix(-1 0 0 1 460 41.967)"/>
            <path fill="#37325C" d="M172.798 101.115s9.533 34.38 14.221 40.005c4.688 5.626 20.002 13.907 20.002 13.907l-4.063 7.189s-27.83-14.184-32.659-25.784c-2.813-6.757-4.683-12.592-5.625-17.814-.768-4.256-3.912-14.84-2.344-19.064 1.022-2.754 8.281-4.22 10.468 1.561" transform="matrix(-1 0 0 1 460 41.967)"/>
            <path fill="#1F2949" d="M268.306 265.213l7.025-6.563s28.091-2.066 29.733.4c1.642 2.464-26.638 15.803-30.269 15.561-3.63-.241-6.011-6.691-6.49-9.398" transform="matrix(-1 0 0 1 460 41.967)"/>
            <path fill="#EFA43A" d="M216.813 170.174s26.563-6.761 28.752-2.385c2.187 4.376 29.766 90.86 29.766 90.86l-7.025 6.564s-29.573-72.999-38.138-80.627c-8.565-7.63-17.315-11.4-13.355-14.412" transform="matrix(-1 0 0 1 460 41.967)"/>
            <path fill="#FFBFB0" d="M216.813 170.174s26.563-6.761 28.752-2.385c2.187 4.376 29.766 90.86 29.766 90.86l-7.025 6.564s-29.573-72.999-38.138-80.627c-8.565-7.63-17.315-11.4-13.355-14.412" transform="matrix(-1 0 0 1 460 41.967)"/>
            <path fill="#EFA43A" d="M203.115 154.246c2.013-.54 3.679-1.206 5.52-2.216 1.48-.81 2.909-1.584 4.688-1.33 1.264.183 11.472 4.433 8.754 6.332-.882.616-3.083-.462-3.963-.778-1.252-.45-2.516-1.062-3.717-1.596 1.097-.056 6.619 2.284 6.038 3.574-1.017 2.267-6.608-.762-7.909-1.491.994.153 4.452 1.451 4.447 2.712-.008 1.98-4.114.326-5.007-.128-.657-.336-1.15-.815-1.872-.912-.856-.115-1.69.27-2.5.443-1.408.298-2.919.218-4.352.083-.852-.078-2.832.103-3.255-.629-.448-.77-.11-2.532.549-3.099.706-.605 1.67-.721 2.58-.965" transform="matrix(-1 0 0 1 460 41.967)"/>
            <path fill="#DB9786" d="M203.115 154.246c2.013-.54 3.679-1.206 5.52-2.216 1.48-.81 2.909-1.584 4.688-1.33 1.264.183 11.472 4.433 8.754 6.332-.882.616-3.083-.462-3.963-.778-1.252-.45-2.516-1.062-3.717-1.596 1.097-.056 6.619 2.284 6.038 3.574-1.017 2.267-6.608-.762-7.909-1.491.994.153 4.452 1.451 4.447 2.712-.008 1.98-4.114.326-5.007-.128-.657-.336-1.15-.815-1.872-.912-.856-.115-1.69.27-2.5.443-1.408.298-2.919.218-4.352.083-.852-.078-2.832.103-3.255-.629-.448-.77-.11-2.532.549-3.099.706-.605 1.67-.721 2.58-.965" transform="matrix(-1 0 0 1 460 41.967)"/>
            <path fill="#1F2949" d="M249.133 108.333L255.381 110.899 233.918 162.69 227.6 159.277 249.133 108.333" transform="matrix(-1 0 0 1 460 41.967)"/>
            <path fill="#1F2949" d="M189.024 164.72L229.888 164.72 229.888 158.373 189.024 158.373z" transform="matrix(-1 0 0 1 460 41.967)"/>
            <path fill="#13375B" d="M116.755 128.851c5.466-3.128 6.38-6.577 3.352-18.013-3.025-11.436 4.896-23.294 12.517-26.432 5.597-2.305 10.514-3.323 13.918-9.29 3.405-5.966-3.048-18.692 7.735-28.118 7.856-6.867 19.13-1.382 19.13-1.382 2.425-1.342 3.425 12.8 3.601 23.437-13.654 20.899-9.763 48.205-4.789 71.6.122.573.314 1.069.501 1.57-1.074 18.107-1.934 33.099-1.934 33.099s-32.824 18.584-55.148 2.673c-22.323-15.912-9.833-42.88 1.117-49.144" transform="matrix(-1 0 0 1 460 41.967)"/>
            <path fill="#1F2949" d="M213.27 260.922l8.333 4.793s10.21 26.251 8.335 28.544c-1.876 2.291-22.919-20.835-23.752-24.377-.834-3.543 4.635-7.71 7.084-8.96" transform="matrix(-1 0 0 1 460 41.967)"/>
            <path fill="#FFBFB0" d="M202.645 168.622s53.545 3.75 58.545 8.543c5.002 4.792-40.459 88.048-40.459 88.048l-7.46-4.291s11.25-39.586 14.167-48.754 8.543-20.21 7.5-21.669c-1.042-1.459-55.004 6.667-54.588-8.542.416-15.21 22.295-13.335 22.295-13.335M176.237 78.3s-5.626 15.316-2.187 26.722l-18.752-4.53s7.672-25.628 10.953-30.004c3.282-4.374 9.986 7.813 9.986 7.813" transform="matrix(-1 0 0 1 460 41.967)"/>
            <path fill="#FFBFB0" d="M168.424 92.053c-6.14 0-9.323 4.536-9.616 9.286l-3.51-.848s7.672-25.627 10.953-30.003c3.282-4.374 9.986 7.813 9.986 7.813s-2.52 6.891-3.15 14.867c-1.306-.685-2.842-1.115-4.663-1.115" transform="matrix(-1 0 0 1 460 41.967)"/>
            <path fill="#FFBFB0" d="M178.176 58.342s7.286 3.48 9.026 6.416c1.74 2.936.217 6.996.363 9.679.144 2.681.885 6.669.478 7.321-.406.653-3.088 0-3.523.58-.435.58-3.915 2.755-5.003 5.22-1.087 2.464-2.538 2.682-5.074 1.45-2.537-1.232-12.253-14.064-12.361-20.082-.11-6.017 8.881-13.05 16.094-10.584" transform="matrix(-1 0 0 1 460 41.967)"/>
            <path fill="#13375B" d="M172.006 50.176s3.399 6.798 3.75 9.494c.353 2.696-2.226 10.668-3.75 11.722-1.523 1.056-.235-8.909-4.102-5.86-3.869 3.047.234 8.791 0 9.962-.235 1.173-1.994 4.924-5.98 5.276-3.983.352-10.548-19.458-6.21-24.381 4.336-4.923 11.721-6.213 16.292-6.213" transform="matrix(-1 0 0 1 460 41.967)"/>
            <path fill="#7777B4" d="M149.515 152.162l24.837-1.876s12.925 14.434 25.69 14.434h43.65s-2.202 18.163-12.711 32.574c0 0-41.624 3.063-61.834 1.396-20.211-1.668-39.425-23.952-19.632-46.528" transform="matrix(-1 0 0 1 460 41.967)"/>
            <path fill="#534F90" d="M233.454 167.704c-.4 0-.828-.022-1.29-.067-6.329-.62-12.473-2.13-18.703-2.917h27.384c-2.435 1.251-3.759 2.984-7.39 2.984" transform="matrix(-1 0 0 1 460 41.967)"/>
            <path fill="#575188" d="M157.678 91.84s11.404 4.486 15.268 4.902c0 0 8.032 17.71 11.156 22.501 3.125 4.792-7.921 23.127-8.545 31.043 0 0-6.64 6.34-26.759 2.44 0 0-5.25-49.742 8.88-60.886" transform="matrix(-1 0 0 1 460 41.967)"/>
            <path fill="#37325C" d="M154.629 102.42c3.49-1.6 9.557.038 11.254 3.535 2.101 4.328-.057 12.016.197 16.7.267 4.921.576 11.467 1.82 16.262.97 3.742 3.417 8.368 6.554 12.147-2.577 1.56-10.05 4.686-25.656 1.662 0 0-3.2-30.33 2.125-48.93 1.453-.495 2.794-.96 3.706-1.375" transform="matrix(-1 0 0 1 460 41.967)"/>
            <path fill="#EFA43A" d="M199.208 154.246c2.013-.54 3.678-1.206 5.52-2.216 1.48-.81 2.909-1.584 4.69-1.33 1.262.183 11.47 4.433 8.752 6.332-.882.616-3.082-.462-3.964-.778-1.25-.45-2.515-1.062-3.715-1.596 1.098-.056 6.618 2.284 6.039 3.574-1.018 2.267-6.61-.762-7.91-1.491.994.153 4.45 1.451 4.446 2.712-.007 1.98-4.114.326-5.005-.128-.66-.336-1.15-.815-1.874-.912-.856-.115-1.69.27-2.5.443-1.409.298-2.917.218-4.351.083-.853-.078-2.832.103-3.256-.629-.448-.77-.109-2.532.55-3.099.704-.605 1.67-.721 2.578-.965" transform="matrix(-1 0 0 1 460 41.967)"/>
            <path fill="#575188" d="M200.926 153.994l-2.187 8.222s-53.755-6.251-55.005-15.784c-1.25-9.531 2.188-53.904 15.157-49.298 12.971 4.607.157 36.797 2.189 39.298 2.03 2.5 39.846 17.562 39.846 17.562" transform="matrix(-1 0 0 1 460 41.967)"/>
            <path fill="#13375B" d="M171.475 46.434s6.408-4.805 13.088.587c6.682 5.392 6.448 13.48 11.957 12.776 0 0-3.634 9.377-11.605 7.15-7.97-2.227-16.214-14.886-13.44-20.513" transform="matrix(-1 0 0 1 460 41.967)"/>
            <path fill="#FFF6F7" d="M235.315 103.23L228.946 103.23 228.946 96.861 225.36 96.861 225.36 103.23 218.99 103.23 218.99 106.814 225.36 106.814 225.36 113.184 228.946 113.184 228.946 106.814 235.315 106.814 235.315 103.23M66.859 151.731L60.488 151.731 60.488 145.362 56.904 145.362 56.904 151.731 50.534 151.731 50.534 155.315 56.904 155.315 56.904 161.685 60.488 161.685 60.488 155.315 66.859 155.315 66.859 151.731M317.277 219.277L310.907 219.277 310.907 212.907 307.323 212.907 307.323 219.277 300.952 219.277 300.952 222.861 307.323 222.861 307.323 229.23 310.907 229.23 310.907 222.861 317.277 222.861 317.277 219.277" transform="matrix(-1 0 0 1 460 41.967)"/>
            <path fill="#FFFFFE" d="M290.2 175.155h-7.698v-7.193h7.698v7.193zm-13.765-19.285c0 5.287 6.65 6.844 6.65 8.904v.816h6.65v-1.944c0-2.838-5.057-4.472-5.057-7.62 0-1.439.936-2.722 2.567-2.722 2.1 0 2.528 1.634 2.528 3.266 0 .35 0 .7-.039 1.05h7.154c.04-.506.117-.972.117-1.478 0-5.054-4.512-8.203-10.616-8.203-5.947 0-9.954 3.11-9.954 7.931zM90.224 115.304H84.41v-5.434h5.814v5.434zm-10.398-14.57c0 3.994 5.024 5.17 5.024 6.727v.617h5.024v-1.47c0-2.144-3.821-3.378-3.821-5.757 0-1.086.707-2.056 1.939-2.056 1.587 0 1.91 1.234 1.91 2.467 0 .264 0 .53-.028.794h5.403c.03-.382.09-.734.09-1.117 0-3.817-3.41-6.198-8.021-6.198-4.493 0-7.52 2.35-7.52 5.993zM306.06 119.091c0 1.901 1.31 3.21 3.21 3.21 1.87 0 3.178-1.309 3.178-3.21 0-1.869-1.309-3.177-3.178-3.177-1.9 0-3.21 1.308-3.21 3.177zm-.28-24.725v11.578l1.246 8.069h4.176l1.246-8.069V94.366h-6.667zM58.696 215.894L63.941 215.894 63.941 210.97 58.696 210.97zM66.936 215.894L72.181 215.894 72.181 210.97 66.936 210.97zM75.178 215.894L80.422 215.894 80.422 210.97 75.178 210.97z" transform="matrix(-1 0 0 1 460 41.967)"/>
        </g>
    </g>
</svg>
