<svg xmlns="http://www.w3.org/2000/svg" xmlns:xlink="http://www.w3.org/1999/xlink" width="294" height="205" viewBox="0 0 294 205">
    <defs>
        <path id="prefix__a" d="M0.117 0.185L54.438 0.185 54.438 41.619 0.117 41.619z"/>
    </defs>
    <g fill="none" fill-rule="evenodd">
        <path fill="#DFE5EE" d="M119.923 261.316s-15.14-51.313-16.354-62.632c-1.215-11.319 7.25-7.812 7.25-7.812s-7.12-21.567-1.971-26.687c5.15-5.118 9.795 4.423 9.795 4.423s1.559-26.182 7.05-26.191c10.226-.019 10.024 28.554 10.024 28.554s2.61-11.187 8.086-8.12c8.259 4.625-3.584 27.042-3.584 27.042s10.523.008 14.219 5.313c6.632 9.52-34.515 66.11-34.515 66.11" transform="matrix(-1 0 0 1 340 .018)"/>
        <path fill="#DFE5EE" d="M124.872 254.524s-43.643-7.298-53.136-15.031c-9.494-7.734-.098-11.22-.098-11.22s-21.924-11.24-21.67-18.882c.253-7.642 11.145-3.757 11.145-3.757s-18.473-21.065-14.1-25.066c8.146-7.451 29.503 14.446 29.503 14.446s-6.342-10.413.337-12.061c10.072-2.486 17.505 23.193 17.505 23.193s-1.889-10.141 5.056-8.79c12.46 2.423 25.458 57.168 25.458 57.168" transform="matrix(-1 0 0 1 340 .018)"/>
        <path fill="#FFF" d="M99.414 197.356c-6.962-1.26-5.056 8.79-5.056 8.79s-7.433-25.678-17.505-23.193c-6.678 1.648-.337 12.062-.337 12.062s-21.356-21.898-29.503-14.446l77.712 73.968c-1.383-7.065-13.639-55.07-25.31-57.181" transform="matrix(-1 0 0 1 340 .018)"/>
        <path fill="#DFE5EE" d="M173.88 19.478c-7.736 1.274-10.034 11.428-3.602 15.97 1.155.815 1.954 2.042 2.295 3.414l1.17 4.724c.323 1.302 1.592 2.137 2.915 1.919l2.93-.482c1.324-.218 2.258-1.416 2.146-2.752-.406-4.876-.91-6.645.676-8.82 4.636-6.362-.792-15.246-8.53-13.973" transform="matrix(-1 0 0 1 340 .018)"/>
        <path fill="#FAE0B2" d="M178.283 26.302c-.242.554-.15 1.264-.094 2.08.633-.36 1.37-.812 1.608-1.472.167-.464-.021-1.118-.493-1.239-.05-.013-.851.242-1.02.63zm-7.17 2.995c.393.425 1.053.611 2.017.567-.166-.71-.413-1.348-.902-1.802-1.1-1.023-1.777.522-1.116 1.235zm3.557 10.825c-.504-4.178-1.211-8.589-1.452-9.84-4.434.245-2.749-4.43-.702-2.529.583.542.858 1.276 1.04 2.081 1.473-.132 2.913-.553 4.225-1.23-.07-1.031-.172-1.812.116-2.471.434-.996 1.696-1.267 2.21-.297.192.365.226.83.087 1.217-.297.824-1.193 1.368-1.973 1.794.233 3.321.556 6.668.963 9.964l-.418.052c-.401-3.243-.72-6.535-.953-9.803-1.303.648-2.72 1.054-4.172 1.19.304 1.6.975 5.899 1.447 9.821l-.418.05z" transform="matrix(-1 0 0 1 340 .018)"/>
        <path fill="#FFF" d="M172.538 38.746c.01.04.025.077.035.117l1.17 4.723c.323 1.301 1.592 2.137 2.915 1.92l2.93-.483c1.324-.218 2.258-1.416 2.146-2.752-.18-2.17-.38-3.723-.407-4.971l-8.789 1.446zM168.145 15.951l-2.313-4.222c-.224-.41-.074-.922.335-1.146.408-.224.921-.074 1.145.335l2.314 4.223c.223.408.074.921-.335 1.145-.411.225-.923.072-1.146-.335M163.089 26.166l-5.043-.44c-.464-.041-.808-.45-.767-.915.04-.464.45-.808.914-.767l5.043.441c.464.04.807.45.767.914-.04.464-.45.808-.914.767M158.088 41.627c-.327-.332-.324-.866.007-1.194 1.24-1.224 2.603-2.336 4.052-3.305.388-.259.912-.154 1.17.233.26.388.156.912-.232 1.17-1.36.91-2.64 1.953-3.803 3.103-.33.326-.865.326-1.194-.007M180.605 15.723c-.45-.12-.718-.583-.598-1.033.572-2.138.922-4.342 1.04-6.552.026-.465.423-.823.889-.797.465.025.822.422.797.888-.125 2.326-.494 4.646-1.095 6.897-.121.453-.586.717-1.033.597M185.798 22.206c-.134-.447.118-.917.564-1.052l5.243-1.58c.447-.134.917.118 1.051.565.135.446-.118.916-.564 1.051l-5.243 1.58c-.445.134-.916-.117-1.05-.564M194.41 36.156c-.075 0-.152-.01-.229-.032-1.816-.51-3.583-1.219-5.25-2.105-.411-.218-.567-.73-.349-1.14.219-.412.73-.568 1.141-.35 1.561.83 3.215 1.492 4.915 1.97.449.126.71.592.584 1.04-.105.373-.444.617-.812.617M271.199 73.457l-2.645-6.255-6.652-1.367c-.758-.155-1.008-1.112-.423-1.619l5.13-4.448-.755-6.749c-.086-.768.746-1.302 1.41-.903l5.815 3.505 6.185-2.804c.704-.319 1.469.308 1.294 1.062l-1.536 6.614 4.578 5.016c.521.57.16 1.492-.61 1.559l-6.765.582-3.355 5.904c-.383.673-1.37.615-1.671-.097M313.303 51.996L312.216 56.375 304.978 55.403 302.598 61.609 297.063 61.768 297.143 64.571 304.547 64.358 306.802 58.477 314.332 59.487 315.968 52.899z" transform="matrix(-1 0 0 1 340 .018)"/>
        <path fill="#DFE5EE" d="M146.274 212.928c0-4.123 2.883-7.466 6.439-7.466h39.768c.186 0 .336-.175.334-.39-.002-.212-.151-.383-.334-.383h-63.087c-3.924 0-7.106 3.689-7.106 8.239 0 4.55 3.182 8.239 7.106 8.239h63.087c.183 0 .332-.171.334-.383.001-.215-.149-.39-.334-.39h-39.768c-3.556 0-6.439-3.343-6.439-7.466" transform="matrix(-1 0 0 1 340 .018)"/>
        <path fill="#184655" d="M254.15 95.002l5.784-1.522-3.92 52.28-6.938.232 3.5-49.09c.064-.905.697-1.669 1.575-1.9" transform="matrix(-1 0 0 1 340 .018)"/>
        <path fill="#A66477" d="M256.533 147.251c-.13.012-.262.01-.397-.006-1.148-.136-1.999-1.278-1.899-2.552l3.85-49.158c.1-1.273 1.11-2.196 2.26-2.06 1.149.136 1.999 1.278 1.899 2.552l-3.85 49.158c-.088 1.125-.887 1.976-1.863 2.066" transform="matrix(-1 0 0 1 340 .018)"/>
        <path fill="#A66477" d="M203.307 149.87c.003.035.004.071.008.108.181 2 1.73 3.495 3.46 3.34l48.84-4.37c1.73-.155 2.987-1.902 2.806-3.902-.008-.085-.02-.168-.031-.25l-55.083 5.073z" transform="matrix(-1 0 0 1 340 .018)"/>
        <path fill="#F7A491" d="M237.317 202.672c-3.198 1.773-12.974-1.337-12.974-1.618-.14 2.672-10.946 28.821-10.946 28.821l.009 8.046s22.266 1.061 21.945-.906c-.32-1.968-1.517-.688-5.959-4.404-.394-.33-6.63-1.777-4.943-5.469 3.399-7.435 10.618-19.83 12.868-24.47" transform="matrix(-1 0 0 1 340 .018)"/>
        <path fill="#575188" d="M207.327 183.897c-.33-.989 20.985-10.034 21.939-9 1.687 1.828-11.532 36.142-11.532 36.142l15.188 4.641s15.79-39.644 15.131-46.895c-.66-7.251-8.57-15.491-25.708-10.218-17.14 5.274-15.018 25.33-15.018 25.33" transform="matrix(-1 0 0 1 340 .018)"/>
        <path fill="#7777B4" d="M246.148 151.42c-2.309-1.231-8.303-1.275-14.894-.847-12.85.832-25.533 3.361-37.757 7.41l-8.18 2.71.027-8.387s-26.02-4.354-26.926 2.096c-1.363 9.711.328 29.428 8.998 33.828 26.93 13.67 64.667-21.776 64.804-17.138.183 6.227 5.434 29.403 6.776 39.551 3.733.065 10.148.062 12.93-.577.54-19.878.795-55.14-5.778-58.646" transform="matrix(-1 0 0 1 340 .018)"/>
        <path fill="#13375B" d="M193.941 70.36c-.625-5.713-1.283-11.447-6.019-15.634-3.832-3.389-8.705-3.963-13.523-2.15-13.652 5.137-6.618 17.261-24.026 29.486-5.409 3.798-11.37 6.398-15.443 11.513-5.7 7.159-3.548 15.77 1.647 21.52 24.858 27.51 52.61-9.643 54.602-18.561 1.482-6.635 3.164-22.496 2.762-26.174" transform="matrix(-1 0 0 1 340 .018)"/>
        <path fill="#575188" d="M188.893 102.486c-2.03-3.743-4.122-6.714-4.122-6.714-2.106-3.744-7.547-5.637-7.547-5.637s-1.82.036-3.91.139c-.13.347-.262.594-.394.694-.786.589-5.287-.171-8.194 1.802-9.745 8.354-7.05 48.843-6.284 61.632l29.679.28s-3.742-27.516 2.288-34.586c4.2-4.923 1.497-12.057-1.516-17.61" transform="matrix(-1 0 0 1 340 .018)"/>
        <path fill="#FFDED6" d="M175.516 76.437s-1.631 11.65-2.77 14.482c-1.14 2.831 6.264 8.886 12.425 10.724 6.161 1.838-1.883-6.254-1.628-9.28.256-3.027 1.376-17.357 1.376-17.357l-9.403 1.43z" transform="matrix(-1 0 0 1 340 .018)"/>
        <path fill="#DEAFA4" d="M184.607 79.115l.312-4.11-9.403 1.432s-.237 1.368-.5 3.304c3.813 2.211 7.24 1.514 9.591-.626" transform="matrix(-1 0 0 1 340 .018)"/>
        <path fill="#FFDED6" d="M178.465 55.156s-3.707.835-5.995 4.327c-2.288 3.493-3.859 13.773 3.679 18.572 7.536 4.8 13.398-1.989 13.495-8.61.097-6.62-1.321-15.457-11.18-14.289" transform="matrix(-1 0 0 1 340 .018)"/>
        <path fill="#DEAFA4" d="M191.37 67.373c-.644 1.598-1.92 2.59-2.85 2.215-.93-.375-1.164-1.974-.52-3.571.642-1.598 1.918-2.59 2.849-2.215.93.375 1.163 1.973.52 3.571" transform="matrix(-1 0 0 1 340 .018)"/>
        <path fill="#13375B" d="M179.577 54.94s-4.725 10.597-8.877 11.544c-4.15.946-4.09 6.279-4.09 6.279s.092-12.315 3.983-15.14c3.89-2.824 8.984-2.684 8.984-2.684" transform="matrix(-1 0 0 1 340 .018)"/>
        <path fill="#DEAFA4" d="M172.35 68.686c.546 1.721.046 3.416-1.117 3.785-1.164.37-2.55-.726-3.096-2.447-.546-1.721-.046-3.416 1.117-3.785 1.163-.37 2.55.726 3.096 2.447" transform="matrix(-1 0 0 1 340 .018)"/>
        <path fill="#FFDED6" d="M225.435 145.198c-1.781-.644-4.432-.723-4.387-.959.178-.952 8.045 2.1 6.982.712-.591-.773-6.479-3.511-7.91-3.06-1.389.44-10.506 2.998-10.506 2.998l-24.917-5.84s-6.29-14.292-6.903-26.57c-5.199.703-8.738 1.987-13.257 4.495 2.179 11.743 7.476 30.777 13.33 34.348 2.463 1.503 31.87-1.798 31.87-1.798s6.481-.458 7.54-.865c.804-.31 2.871-1.474 3.996-1.792 2.557-.724 7.112 1.093 7.127.593.01-.365-1.146-1.604-2.965-2.262" transform="matrix(-1 0 0 1 340 .018)"/>
        <path fill="#575188" d="M177.946 99.36c-.24-3.779-1.67-7.427-5.69-8.602-2.492-.728-5.287-.03-7.278 1.595-2.369 1.935-3.03 5.038-3.02 7.976.026 6.67.48 13.585 1.699 20.151 4.518-2.508 9.793-4.015 14.992-4.718-.003-.039-.386-11.41-.703-16.403" transform="matrix(-1 0 0 1 340 .018)"/>
        <path fill="#F4F6F7" d="M100.745 106.488l-38.63-7.193c-.775-.144-1.287-.89-1.142-1.666l4.839-25.987c.144-.776.89-1.288 1.666-1.143l38.63 7.193c.776.144 1.287.89 1.143 1.666l-4.84 25.987c-.144.776-.89 1.288-1.666 1.143" transform="matrix(-1 0 0 1 340 .018)"/>
        <path fill="#F4F6F7" d="M82.357 76.78L70.6 74.59c-.776-.144-1.288-.89-1.144-1.666l.737-3.954c.144-.776.89-1.288 1.666-1.143l11.759 2.19c.776.144 1.287.89 1.143 1.666l-.736 3.954c-.145.776-.891 1.287-1.667 1.143" transform="matrix(-1 0 0 1 340 .018)"/>
        <path fill="#FFF" d="M102.504 105.495c-.2.71-.91 1.152-1.636 1.016l-38.882-7.24c-.723-.135-1.226-.796-1.162-1.53l2.035-23.294c.035-.401.238-.77.559-1.013.32-.244.73-.34 1.126-.267l43.194 8.043c.395.074.74.31.952.65.212.342.27.757.162 1.143l-6.348 22.492zM279.685 20.379L273.07 22.185 271.645 14.168 273.81 13.784 274.813 19.43 279.106 18.258zM68.94 130.469c1.657-.135 4.201.595 5.341 1.368.171.16 1.483.682 2.846 2.94l-.307.213c-1.438-1.506-2.405-1.843-3.558-2.189-1.9-.488-3.813-.122-3.97-.038l-.351-2.294z" transform="matrix(-1 0 0 1 340 .018)"/>
        <path fill="#FFF" d="M76.974 134.884s-10.094 1.684-9.153 9.57c.942 7.884 11.59 14.018 21.093 9.141 12.785-6.56 7.735-23.238-1.364-24.528-9.1-1.29-10.576 5.817-10.576 5.817" transform="matrix(-1 0 0 1 340 .018)"/>
        <path fill="#DFE5EE" d="M81.255 131.412s2.634-2.703 8.403-.244c5.77 2.46 6.188 13.929 1.042 13.263-5.146-.667-13.56-11.364-9.445-13.019" transform="matrix(-1 0 0 1 340 .018)"/>
        <g transform="matrix(-1 0 0 1 340 .018) translate(97.962)">
            <mask id="prefix__b" fill="#fff">
                <use xlink:href="#prefix__a"/>
            </mask>
            <path fill="#F4F6F7" d="M52.729 26.66L11.216 41.47c-1.338.477-2.81-.22-3.287-1.559L.267 18.43c-.477-1.338.22-2.81 1.559-3.287L43.338.335c1.338-.477 2.81.22 3.287 1.559l7.662 21.48c.478 1.338-.22 2.81-1.558 3.286" mask="url(#prefix__b)"/>
        </g>
        <path fill="#FFF" d="M123.175 21.14c1.527 4.279-.705 8.985-4.984 10.512-4.28 1.526-8.986-.705-10.513-4.985-1.526-4.28.705-8.985 4.985-10.512 4.279-1.527 8.986.705 10.512 4.984" transform="matrix(-1 0 0 1 340 .018)"/>
        <path fill="#DFE5EE" d="M116.606 19.988c.45 1.262-.208 2.65-1.47 3.1-1.262.45-2.65-.208-3.1-1.47-.45-1.262.208-2.65 1.47-3.1 1.262-.45 2.65.208 3.1 1.47M120.559 26.753l-7.302 2.604-.293-.82c-.533-1.494.247-3.139 1.742-3.672l1.887-.673c1.496-.534 3.14.246 3.673 1.741l.293.82z" transform="matrix(-1 0 0 1 340 .018)"/>
        <path fill="#FFF" d="M124.198 16.649c-.442 0-.84-.28-.988-.697-.194-.545.091-1.146.636-1.34l18.147-6.474c.114-.04.232-.061.352-.061.443 0 .84.28.988.697.195.545-.09 1.146-.635 1.34l-18.147 6.474c-.114.04-.233.06-.353.06M129.097 21.173c-.442 0-.84-.28-.988-.697-.195-.545.09-1.146.635-1.34l14.173-5.056c.114-.041.233-.062.353-.062.442 0 .84.28.988.697.094.264.08.549-.04.802s-.332.444-.596.539L129.45 21.11c-.113.041-.232.062-.352.062M215.191 188.679H114.955c-3.113 0-5.636 2.523-5.636 5.636v4.74c0 3.113 2.523 5.636 5.636 5.636H215.19l-.052-.054c-4.289-4.464-4.266-11.523.052-15.958" transform="matrix(-1 0 0 1 340 .018)"/>
        <path fill="#DFE5EE" d="M213.416 191.049h-53.584c-3.113 0-5.636 2.523-5.636 5.636s2.523 5.636 5.636 5.636h53.583c-1.97-3.49-1.967-7.785.001-11.272M297.229 189.14l-7.598-19.063c-.383-.959.085-2.046 1.044-2.429l27.341-10.897c.959-.383 2.046.085 2.428 1.044l7.598 19.063c.383.959-.085 2.046-1.044 2.428l-27.34 10.898c-.96.382-2.047-.086-2.43-1.044" transform="matrix(-1 0 0 1 340 .018)"/>
        <path fill="#FFF" d="M323.02 178.117l-6.827-17.13c-.11-.275.024-.587.3-.697.275-.11.586.025.696.3l6.828 17.13c.11.275-.025.587-.3.696-.275.11-.587-.024-.696-.3M319.767 175.86l-5.605-14.063c-.11-.276.024-.587.3-.697.275-.11.587.024.696.3l5.606 14.064c.11.275-.025.587-.3.696-.275.11-.587-.024-.697-.3M318.958 179.736l-6.827-17.13c-.11-.275.024-.587.3-.696.274-.11.586.024.696.3l6.828 17.129c.11.275-.024.587-.3.697-.275.11-.587-.025-.697-.3M315.37 176.637l-5.27-13.221c-.11-.276.024-.587.3-.697.275-.11.586.025.696.3l5.27 13.22c.11.276-.024.588-.3.697-.275.11-.587-.024-.697-.3" transform="matrix(-1 0 0 1 340 .018)"/>
        <path fill="#355389" d="M322.837 159.16l-.138-.344c-.05-.127-.188-.192-.307-.144l-2.595 1.034c-.12.048-.176.19-.125.316l.138.345c.05.127.188.191.307.144l2.595-1.034c.12-.048.175-.19.125-.316M323.425 160.636l-.138-.345c-.05-.127-.188-.191-.307-.144l-2.595 1.035c-.12.047-.176.189-.125.316l.138.345c.05.127.188.191.307.143l2.596-1.034c.119-.048.174-.19.124-.316M324.013 162.111l-.138-.345c-.05-.126-.188-.19-.307-.143l-2.595 1.034c-.12.048-.176.19-.125.316l.138.345c.05.127.188.191.307.144l2.595-1.035c.12-.047.176-.189.125-.316M324.601 163.587l-.137-.345c-.051-.127-.189-.192-.308-.144l-2.595 1.034c-.12.048-.175.19-.125.316l.138.346c.05.126.188.19.307.143l2.595-1.034c.12-.048.176-.19.125-.316M325.19 165.062l-.138-.345c-.05-.127-.189-.191-.308-.143l-2.595 1.034c-.12.047-.175.19-.125.316l.138.345c.05.127.188.191.307.144l2.596-1.035c.12-.047.175-.189.124-.316M325.777 166.537l-.137-.344c-.051-.127-.189-.192-.308-.144l-2.595 1.034c-.12.048-.175.19-.125.316l.138.345c.05.127.188.191.308.144l2.595-1.034c.12-.048.175-.19.124-.317M326.365 168.013l-.137-.345c-.05-.127-.188-.191-.308-.144l-2.595 1.034c-.12.048-.175.19-.125.317l.138.345c.05.127.188.19.308.143l2.595-1.034c.12-.048.175-.189.124-.316M326.953 169.488l-.137-.345c-.05-.127-.188-.19-.308-.143l-2.595 1.034c-.12.048-.175.189-.125.316l.138.345c.05.127.188.191.308.144l2.595-1.035c.12-.047.175-.189.124-.316M327.541 170.964l-.137-.345c-.05-.127-.188-.191-.308-.144l-2.595 1.034c-.12.048-.175.19-.124.317l.137.344c.05.127.189.192.308.144l2.595-1.034c.12-.048.175-.19.124-.316M328.13 172.44l-.138-.346c-.05-.127-.188-.191-.308-.144l-2.595 1.035c-.119.048-.175.189-.124.316l.137.345c.05.127.189.191.308.143l2.595-1.034c.12-.047.175-.189.125-.316M328.717 173.915l-.137-.346c-.05-.126-.188-.19-.308-.143l-2.595 1.034c-.12.048-.175.19-.124.316l.137.345c.05.127.189.192.308.144l2.595-1.034c.12-.048.175-.19.124-.316M329.306 175.39l-.138-.345c-.05-.127-.188-.191-.308-.144l-2.595 1.035c-.119.047-.175.189-.124.316l.137.345c.05.127.189.19.308.143l2.595-1.034c.12-.048.175-.19.125-.316" transform="matrix(-1 0 0 1 340 .018)"/>
        <path fill="#FFF" d="M336.475 173.871l-10.852 15.452c-.024.035-.043.073-.056.113l-1.106 3.395c-.129.395.328.721.66.471l2.904-2.189c.036-.027.067-.059.092-.095l10.88-15.492c.139-.198.085-.472-.12-.602l-1.825-1.166c-.192-.123-.447-.073-.577.113" transform="matrix(-1 0 0 1 340 .018)"/>
        <path fill="#DFE5EE" d="M328.106 191.035l-.027.038-2.803 2.112-.764-.511 1.049-3.219c.82.45 1.804.91 2.545 1.58M226.542 6.594c1.562 1.247 4.279 5.258 7.746 8.075 2.028 1.647 3.59 1.228 6.178 1.54 12.282 1.485 8.954 3.996 10.427 4.243-.418.962-4.245 9.096-4.96 10.74-.66 1.517-1.8 2.195-3.452 1.967-2.54-.351-5.102-.612-7.603-1.155-6.41-1.39-9.977-4.596-14.57-8.49-1.22-1.032-1.52-2.32-.888-3.78 2.941-6.796 6.802-12.514 7.122-13.14" transform="matrix(-1 0 0 1 340 .018)"/>
        <path fill="#FFF" d="M252.224 30.236c-.055 2.677.15 3.214-1 2.808-.692-.244-1.362-.563-2.015-.9-.462-.238-.48-.552-.105-.928.545-.548 1.105-1.081 1.65-1.612-.398-1.05.059-2.272 1.04-2.846.201-.118.055.131 1.765-3.805-5.656-.698-9.647-1.167-16.548-2.015-1.845-.227-3.486-.944-4.913-2.138-4.929-4.124-9.857-8.248-14.782-12.377-.668-.56-.753-1.38-.223-2.012.406-.483.944-.506 1.522-.433 1.575.197 17.016 2.116 18.584 2.299 2.06.24 3.873 1.016 5.466 2.35 4.843 4.055 9.697 8.095 14.546 12.143.665.555.845 1.065.612 1.682-.257.68-.818 1.003-1.665.82-.612-.132-.883.052-1.093.619-.951 2.56-1.615 3.127-1.386 4.061.177.722-.68 1.97-1.455 2.284" transform="matrix(-1 0 0 1 340 .018)"/>
        <path fill="#466EB6" d="M277.84 212.06l2.815 2.683c6.656 6.348 12.084 13.87 16.012 22.187l.431.914s7.37.65 8.398-6.012c-6.465-7.3-11.787-15.093-16.18-23.762l-1.331-3.115-10.144 7.104z" transform="matrix(-1 0 0 1 340 .018)"/>
        <path fill="#86B1F2" d="M287.978 204.946c.362.519-1.614 2.522-4.414 4.474-2.8 1.953-5.376 3.14-5.737 2.621-.362-.519 1.627-2.546 4.427-4.498 2.8-1.953 5.363-3.116 5.724-2.597" transform="matrix(-1 0 0 1 340 .018)"/>
        <path fill="#355389" d="M287.99 204.965l-.009-.01s-5.61 4.747-7.922 5.232l.714.972c.845-.457 1.804-1.05 2.79-1.738 2.768-1.93 4.731-3.91 4.427-4.456" transform="matrix(-1 0 0 1 340 .018)"/>
        <path fill="#DFE5EE" d="M310.154 105.52l-18.216-16.255c-1.184-1.056-.691-3.23.942-4.154l14.538-8.232c.93-.527 1.98-.478 2.654.124l18.216 16.255c1.184 1.056.691 3.23-.942 4.154l-14.538 8.232c-.93.527-1.98.478-2.654-.124" transform="matrix(-1 0 0 1 340 .018)"/>
        <path fill="#FFF" d="M309.29 92.59l-1.518-12.49c-.058-.478.29-.989.778-1.141.488-.152.93.113.989.59l1.398 11.493 13.813 3.34c.45.109.658.595.463 1.085s-.719.8-1.17.69l-14.752-3.568zM71.417 35.385L73.3 39.109 77.554 38.972 79.369 43.296 83.855 41.753 86.123 46.553 90.429 45.641 93.367 49.902 91.754 51.014 89.557 47.828 85.014 48.79 82.833 44.176 78.272 45.746 76.269 40.973 72.115 41.108 70.37 37.656 67.66 38.314 67.197 36.411zM299.229 130.67L303.095 132.241 306.212 129.343 310.422 131.411 312.79 127.301 317.653 129.429 320.3 125.913 325.315 127.196 324.829 129.094 321.08 128.135 318.286 131.845 313.611 129.799 311.204 133.979 306.559 131.696 303.515 134.526 299.931 133.07 298.321 135.347 296.721 134.216z" transform="matrix(-1 0 0 1 340 .018)"/>
    </g>
</svg>
